<svg xmlns="http://www.w3.org/2000/svg" xmlns:xlink="http://www.w3.org/1999/xlink" viewBox="0 0 486.71 178.26"><defs><style>.cls-1{fill:url(#linear-gradient);}.cls-2{fill:none;}.cls-3{fill:url(#linear-gradient-2);}.cls-4{fill:url(#linear-gradient-3);}.cls-5{fill:url(#linear-gradient-4);}.cls-6{isolation:isolate;}.cls-10,.cls-7{fill:#fff;}.cls-7{stroke:#fff;}.cls-8{clip-path:url(#clip-path);}.cls-9{mask:url(#mask);}.cls-11{fill:url(#linear-gradient-5);}.cls-12{clip-path:url(#clip-path-2);}.cls-13{fill:url(#linear-gradient-7);}.cls-14{fill:url(#linear-gradient-8);}.cls-15{clip-path:url(#clip-path-3);}.cls-16{fill:url(#linear-gradient-10);}.cls-17{fill:url(#linear-gradient-11);}.cls-18{mix-blend-mode:multiply;}.cls-19{clip-path:url(#clip-path-4);}.cls-20{filter:url(#luminosity-noclip);}</style><linearGradient id="linear-gradient" x1="6353.57" y1="4452.06" x2="6354.47" y2="4452.06" gradientTransform="matrix(-185.55, 0, 0, -185.55, 1179100.66, 826222.09)" gradientUnits="userSpaceOnUse"><stop offset="0" stop-color="#fff"/><stop offset="1"/></linearGradient><linearGradient id="linear-gradient-2" x1="88.95" y1="198.64" x2="88.95" y2="30.93" gradientUnits="userSpaceOnUse"><stop offset="0" stop-color="#fff"/><stop offset="1" stop-color="#fff" stop-opacity="0.1"/></linearGradient><linearGradient id="linear-gradient-3" x1="172.27" y1="198.64" x2="172.27" y2="30.93" gradientUnits="userSpaceOnUse"><stop offset="0" stop-color="#fff"/><stop offset="0.79" stop-color="#fff" stop-opacity="0.29"/><stop offset="1" stop-color="#fff" stop-opacity="0.1"/></linearGradient><linearGradient id="linear-gradient-4" x1="131.35" y1="154.92" x2="131.35" y2="31.38" xlink:href="#linear-gradient-2"/><clipPath id="clip-path" transform="translate(-27.53 -24.52)"><polygon class="cls-2" points="27.53 30.93 88.95 198.64 150.36 30.93 27.53 30.93"/></clipPath><filter id="luminosity-noclip" x="25.77" y="25.33" width="174.52" height="174.6" filterUnits="userSpaceOnUse" color-interpolation-filters="sRGB"><feFlood flood-color="#fff" result="bg"/><feBlend in="SourceGraphic" in2="bg"/></filter><mask id="mask" x="-1.76" y="0.81" width="174.52" height="174.6" maskUnits="userSpaceOnUse"><g class="cls-20"><g transform="translate(-27.53 -24.52)"><rect class="cls-1" x="4.45" y="52.49" width="168.99" height="124.58" transform="translate(-26.76 202.53) rotate(-89.4)"/></g></g></mask><linearGradient id="linear-gradient-5" x1="103.08" y1="86.23" x2="103.08" y2="-5.04" gradientUnits="userSpaceOnUse"><stop offset="0" stop-color="#fff"/><stop offset="0.17" stop-color="#fff" stop-opacity="0.87"/><stop offset="0.54" stop-color="#fff" stop-opacity="0.62"/><stop offset="0.8" stop-color="#fff" stop-opacity="0.46"/><stop offset="0.94" stop-color="#fff" stop-opacity="0.4"/></linearGradient><clipPath id="clip-path-2" transform="translate(-27.53 -24.52)"><polygon class="cls-3" points="88.95 198.64 150.36 30.93 27.53 30.93 88.95 198.64"/></clipPath><linearGradient id="linear-gradient-7" x1="6396.93" y1="4451.59" x2="6397.83" y2="4451.59" gradientTransform="matrix(0, -185.52, -185.52, 0, 825942.78, 1186957.27)" xlink:href="#linear-gradient-2"/><linearGradient id="linear-gradient-8" x1="6354.58" y1="4452.01" x2="6355.49" y2="4452.01" gradientTransform="matrix(0, 185.52, -185.52, 0, 826041.1, -1178926.62)" gradientUnits="userSpaceOnUse"><stop offset="0" stop-color="#fff"/><stop offset="1" stop-color="#fff" stop-opacity="0"/></linearGradient><clipPath id="clip-path-3" transform="translate(-27.53 -24.52)"><polygon class="cls-4" points="172.27 198.64 233.69 30.93 110.85 30.93 172.27 198.64"/></clipPath><linearGradient id="linear-gradient-10" x1="6396.89" y1="4451.64" x2="6397.8" y2="4451.64" gradientTransform="matrix(0, -185.52, -185.52, 0, 826034.78, 1186957.27)" xlink:href="#linear-gradient-3"/><linearGradient id="linear-gradient-11" x1="6354.58" y1="4380.44" x2="6355.49" y2="4380.44" gradientTransform="matrix(0, 185.52, 185.52, 0, -812556.32, -1178926.62)" xlink:href="#linear-gradient-8"/><clipPath id="clip-path-4" transform="translate(-27.53 -24.52)"><polygon class="cls-5" points="131.35 198.64 192.76 30.93 69.93 30.93 131.35 198.64"/></clipPath></defs><title>WFIC_Horizontal (1)</title><g class="cls-6"><g id="Layer_1" data-name="Layer 1"><line class="cls-7" x1="209.05" y1="134.41" x2="486.71" y2="134.41"/><path class="cls-10" d="M244,100.85v-39h7.46v39Z" transform="translate(-27.53 -24.52)"/><path class="cls-10" d="M259,100.85v-39h8.15L277.49,85h.11V61.86h6.8v39h-7.13L265.88,75.68h-.11v25.17Z" transform="translate(-27.53 -24.52)"/><path class="cls-10" d="M292,100.85v-39h8.15L310.48,85h.11V61.86h6.8v39h-7.12l-11.4-25.17h-.11v25.17Z" transform="translate(-27.53 -24.52)"/><path class="cls-10" d="M323.87,74.39c0-9.61,5.08-13.07,12.32-13.07s12.31,3.46,12.31,13.07V88.32c0,9.61-5.08,13.07-12.31,13.07s-12.32-3.46-12.32-13.07Zm7.46,14.9c0,4.32,1.89,5.51,4.86,5.51s4.86-1.19,4.86-5.51V73.42c0-4.32-1.89-5.51-4.86-5.51s-4.86,1.19-4.86,5.51Z" transform="translate(-27.53 -24.52)"/><path class="cls-10" d="M352,61.86h7.34l6.86,27.86h.11l6.8-27.86h7.29l-9.93,39H362Z" transform="translate(-27.53 -24.52)"/><path class="cls-10" d="M379.93,100.85l9.66-39h9.56l9.4,39h-7.13l-1.89-8.21H389.21l-2.1,8.21Zm10.63-14.8H398l-3.62-15.77h-.1Z" transform="translate(-27.53 -24.52)"/><path class="cls-10" d="M432.2,61.86v6.59h-8.7v32.4h-7.45V68.45h-8.69V61.86Z" transform="translate(-27.53 -24.52)"/><path class="cls-10" d="M437.06,100.85v-39h7.45v39Z" transform="translate(-27.53 -24.52)"/><path class="cls-10" d="M451,74.39c0-9.61,5.08-13.07,12.31-13.07s12.31,3.46,12.31,13.07V88.32c0,9.61-5.07,13.07-12.31,13.07S451,97.93,451,88.32Zm7.45,14.9c0,4.32,1.89,5.51,4.86,5.51s4.86-1.19,4.86-5.51V73.42c0-4.32-1.89-5.51-4.86-5.51s-4.86,1.19-4.86,5.51Z" transform="translate(-27.53 -24.52)"/><path class="cls-10" d="M482.1,100.85v-39h8.15L500.62,85h.11V61.86h6.8v39H500.4L489,75.68h-.11v25.17Z" transform="translate(-27.53 -24.52)"/><path class="cls-10" d="M298.87,133.29c0,4.32,1.89,5.51,4.86,5.51s4.86-1.19,4.86-5.51V130.7H316v1.62c0,9.61-5.07,13.07-12.31,13.07s-12.31-3.46-12.31-13.07V118.39c0-9.61,5.08-13.07,12.31-13.07S316,108.78,316,118.39v.11h-7.45v-1.08c0-4.32-1.89-5.51-4.86-5.51s-4.86,1.19-4.86,5.51Z" transform="translate(-27.53 -24.52)"/><path class="cls-10" d="M322.09,144.85v-39H342.5v6.59h-13v9h9.89V128h-9.89v10.26H343v6.59Z" transform="translate(-27.53 -24.52)"/><path class="cls-10" d="M349.52,144.85v-39h8.16L368.05,129h.1V105.86H375v39h-7.13l-11.39-25.17h-.11v25.17Z" transform="translate(-27.53 -24.52)"/><path class="cls-10" d="M404.66,105.86v6.59H396v32.4h-7.45v-32.4h-8.69v-6.59Z" transform="translate(-27.53 -24.52)"/><path class="cls-10" d="M409.09,144.85v-39H429.5v6.59h-13v9h9.88V128h-9.88v10.26H430v6.59Z" transform="translate(-27.53 -24.52)"/><path class="cls-10" d="M453.58,144.85,447.1,129h-3.56v15.88h-7.45v-39h10.8c9,0,13.23,4.32,13.23,11.66,0,4.86-1.73,8.37-5.89,9.94l7.34,17.39Zm-10-22h3.83c3.3,0,5.29-1.62,5.29-5.4s-2-5.4-5.29-5.4h-3.83Z" transform="translate(-27.53 -24.52)"/><polygon class="cls-11" points="103.04 60.73 83.33 6.42 122.83 6.42 103.04 60.73"/><polygon class="cls-3" points="61.42 174.13 122.83 6.42 0 6.42 61.42 174.13"/><g class="cls-12"><rect class="cls-13" width="122.83" height="167.71"/></g><polygon class="cls-14" points="103.03 6.41 112.91 33.39 61.37 174.13 51.49 147.15 103.03 6.41"/><polygon class="cls-4" points="144.74 174.13 206.16 6.42 83.33 6.42 144.74 174.13"/><g class="cls-15"><rect class="cls-16" x="83.33" y="6.42" width="122.83" height="167.71"/></g><polygon class="cls-17" points="103.07 6.42 93.19 33.39 144.73 174.13 154.61 147.16 103.07 6.42"/><g class="cls-18"><polygon class="cls-5" points="103.82 174.13 165.24 6.42 42.4 6.42 103.82 174.13"/><g class="cls-19"><rect class="cls-5" x="42.4" y="6.42" width="122.83" height="167.71"/></g></g><polygon class="cls-10" points="165.2 6.62 103.69 165.95 42.55 6.62 103.82 178.26 165.2 6.62"/><polygon class="cls-10" points="74.72 83.62 102.83 1.3 132.31 86.87 102.83 16.32 74.72 83.62"/><path class="cls-10" d="M300.54,31.33h3.37l2.77,13.8h.07L309,31.33h3.83L308.66,53h-3.43l-3-14.31h-.06L299.42,53H296l-4.52-21.66h3.83l2.51,13.8h.06Z" transform="translate(-27.53 -24.52)"/><path class="cls-10" d="M319.09,53h-4l4.39-21.66h5.08L329,53h-4l-.72-4.8h-4.49Zm1.32-8h3.3l-1.62-9.3H322Z" transform="translate(-27.53 -24.52)"/><path class="cls-10" d="M335,34.57h-4V31.33h12v3.24h-4V53H335Z" transform="translate(-27.53 -24.52)"/><path class="cls-10" d="M350.31,34.57h-4V31.33h12v3.24h-4V53h-4.09Z" transform="translate(-27.53 -24.52)"/><path class="cls-10" d="M373,53V31.33h11.42v3.24h-7.32v5.58h5.48v3.24h-5.48V53Z" transform="translate(-27.53 -24.52)"/><path class="cls-10" d="M391.33,53h-4l4.39-21.66h5.08L401.23,53h-4l-.73-4.8h-4.49Zm1.32-8H396l-1.62-9.3h-.07Z" transform="translate(-27.53 -24.52)"/><path class="cls-10" d="M422.48,31.33V53h-3.56V36.07h-.07L415.15,53h-2l-3.69-16.92h-.07V53h-3.56V31.33h5.38L414.13,44h.07l2.9-12.66Z" transform="translate(-27.53 -24.52)"/><path class="cls-10" d="M429.28,53V31.33h4.09V53Z" transform="translate(-27.53 -24.52)"/><path class="cls-10" d="M440.17,53V31.33h4.09V49.75h6.43V53Z" transform="translate(-27.53 -24.52)"/><path class="cls-10" d="M461.25,53h-4.09V44l-5-12.66h4.16l2.87,8.25h.07l2.74-8.25h4.15L461.25,44Z" transform="translate(-27.53 -24.52)"/><path class="cls-10" d="M249.49,176.56v-1.68c0-1.83-.84-2.61-1.8-2.61-1.5,0-2,.78-2,2.4v11c0,1.62.48,2.4,2,2.4,1.35,0,1.8-.78,1.8-2.19v-2.61h3.72v2.49c0,3.06-1.8,5.55-5.52,5.55-3.9,0-5.7-2.49-5.7-5.55V174.58c0-3.06,1.8-5.55,5.7-5.55,3.72,0,5.52,2.7,5.52,5.94v1.59Z" transform="translate(-27.53 -24.52)"/><path class="cls-10" d="M258.91,191V169.33h3.72v18.42h5.85V191Z" transform="translate(-27.53 -24.52)"/><path class="cls-10" d="M272.86,191V169.33h10v3.24h-6.24v5.58h4.8v3.24h-4.8v6.36h6.66V191Z" transform="translate(-27.53 -24.52)"/><path class="cls-10" d="M303.19,169.33V191H300V174.07h-.06L296.53,191h-1.8l-3.36-16.92h-.06V191h-3.24V169.33H293L295.6,182h.06l2.64-12.66Z" transform="translate(-27.53 -24.52)"/><path class="cls-10" d="M315.49,174.67c-.15-1.86-1.14-2.4-2-2.4-1.2,0-1.86.78-1.86,2.13,0,3.69,7.56,5.46,7.56,11.34,0,3.57-2.4,5.55-5.88,5.55s-5.43-2.76-5.58-6l3.54-.51c.15,2.19,1,3.27,2.22,3.27a1.91,1.91,0,0,0,2.16-2c0-4.29-7.56-5.43-7.56-11.64,0-3.45,2.1-5.4,5.76-5.4,3,0,4.83,2.19,5.16,5.25Z" transform="translate(-27.53 -24.52)"/><path class="cls-10" d="M324.13,174.58c0-3.06,1.8-5.55,5.7-5.55s5.7,2.49,5.7,5.55v11.16c0,3.06-1.8,5.55-5.7,5.55s-5.7-2.49-5.7-5.55Zm3.72,11.07c0,1.62.48,2.4,2,2.4s2-.78,2-2.4v-11c0-1.62-.48-2.4-2-2.4s-2,.78-2,2.4Z" transform="translate(-27.53 -24.52)"/><path class="cls-10" d="M341.23,191V169.33h3.45l4.53,12.39h.06V169.33h3.36V191h-3.24l-4.74-13.53h-.06V191Z" transform="translate(-27.53 -24.52)"/><path class="cls-10" d="M367.09,169.33h3.72v16.35c0,1.59.63,2.37,2,2.37s2-.78,2-2.37V169.33h3.72v16.2c0,3.72-2.16,5.76-5.7,5.76s-5.69-2-5.69-5.76Z" transform="translate(-27.53 -24.52)"/><path class="cls-10" d="M384.19,191V169.33h3.45l4.52,12.39h.06V169.33h3.36V191h-3.24l-4.74-13.53h-.05V191Z" transform="translate(-27.53 -24.52)"/><path class="cls-10" d="M401.8,191V169.33h3.72V191Z" transform="translate(-27.53 -24.52)"/><path class="cls-10" d="M419.31,169.33H423L418.44,191h-3.72l-4.52-21.66h3.65l2.7,15h.06Z" transform="translate(-27.53 -24.52)"/><path class="cls-10" d="M427.14,191V169.33h10v3.24h-6.24v5.58h4.8v3.24h-4.8v6.36h6.66V191Z" transform="translate(-27.53 -24.52)"/><path class="cls-10" d="M446.28,191h-3.72V169.33h5.22c4.17,0,6.3,1.77,6.3,6.39,0,3.48-1.35,4.89-2.61,5.46l3.15,9.81h-3.78l-2.64-9a17.94,17.94,0,0,1-1.92.09Zm0-11.94h1.32c2,0,2.76-.75,2.76-3.33s-.75-3.33-2.76-3.33h-1.32Z" transform="translate(-27.53 -24.52)"/><path class="cls-10" d="M466.44,174.67c-.15-1.86-1.14-2.4-2-2.4-1.2,0-1.86.78-1.86,2.13,0,3.69,7.56,5.46,7.56,11.34,0,3.57-2.4,5.55-5.88,5.55s-5.43-2.76-5.58-6l3.54-.51c.15,2.19,1,3.27,2.22,3.27a1.91,1.91,0,0,0,2.16-2c0-4.29-7.56-5.43-7.56-11.64,0-3.45,2.1-5.4,5.76-5.4,3,0,4.83,2.19,5.16,5.25Z" transform="translate(-27.53 -24.52)"/><path class="cls-10" d="M475.59,191V169.33h3.72V191Z" transform="translate(-27.53 -24.52)"/><path class="cls-10" d="M487.68,172.57h-3.6v-3.24H495v3.24h-3.6V191h-3.72Z" transform="translate(-27.53 -24.52)"/><path class="cls-10" d="M506,191h-3.72v-9l-4.5-12.66h3.78l2.61,8.25h.06l2.49-8.25h3.78L506,182Z" transform="translate(-27.53 -24.52)"/></g></g></svg>