<svg xmlns="http://www.w3.org/2000/svg" xmlns:xlink="http://www.w3.org/1999/xlink" viewBox="0 0 486.71 178.26"><defs><style>.cls-1{fill:url(#linear-gradient);}.cls-2{fill:none;}.cls-3{fill:url(#linear-gradient-2);}.cls-4{fill:url(#linear-gradient-3);}.cls-5{fill:url(#linear-gradient-4);}.cls-6{isolation:isolate;}.cls-10,.cls-20,.cls-25,.cls-7{fill:#fff;}.cls-7{stroke:#fff;}.cls-8{clip-path:url(#clip-path);}.cls-9{mask:url(#mask);}.cls-11{fill:url(#linear-gradient-5);}.cls-12{clip-path:url(#clip-path-2);}.cls-13{fill:url(#linear-gradient-7);}.cls-14{fill:url(#linear-gradient-8);}.cls-15{clip-path:url(#clip-path-3);}.cls-16{fill:url(#linear-gradient-10);}.cls-17{fill:url(#linear-gradient-11);}.cls-18{mix-blend-mode:multiply;}.cls-19{clip-path:url(#clip-path-4);}.cls-20,.cls-25{font-size:30px;font-family:TradeGothicLTStd-BdCn20, Trade Gothic LT Std;font-weight:700;}.cls-20{letter-spacing:0.04em;}.cls-21{letter-spacing:0.08em;}.cls-22{letter-spacing:0.07em;}.cls-23{letter-spacing:0.02em;}.cls-24{letter-spacing:0.07em;}.cls-25{letter-spacing:0.07em;}.cls-26{filter:url(#luminosity-noclip);}</style><linearGradient id="linear-gradient" x1="6353.57" y1="4452.06" x2="6354.47" y2="4452.06" gradientTransform="matrix(-185.55, 0, 0, -185.55, 1179100.66, 826222.09)" gradientUnits="userSpaceOnUse"><stop offset="0" stop-color="#fff"/><stop offset="1"/></linearGradient><linearGradient id="linear-gradient-2" x1="88.95" y1="198.64" x2="88.95" y2="30.93" gradientUnits="userSpaceOnUse"><stop offset="0" stop-color="#fff"/><stop offset="1" stop-color="#fff" stop-opacity="0.1"/></linearGradient><linearGradient id="linear-gradient-3" x1="172.27" y1="198.64" x2="172.27" y2="30.93" gradientUnits="userSpaceOnUse"><stop offset="0" stop-color="#fff"/><stop offset="0.79" stop-color="#fff" stop-opacity="0.29"/><stop offset="1" stop-color="#fff" stop-opacity="0.1"/></linearGradient><linearGradient id="linear-gradient-4" x1="131.35" y1="154.92" x2="131.35" y2="31.38" xlink:href="#linear-gradient-2"/><clipPath id="clip-path" transform="translate(-27.53 -24.52)"><polygon class="cls-2" points="27.53 30.93 88.95 198.64 150.36 30.93 27.53 30.93"/></clipPath><filter id="luminosity-noclip" x="25.77" y="25.33" width="174.52" height="174.6" filterUnits="userSpaceOnUse" color-interpolation-filters="sRGB"><feFlood flood-color="#fff" result="bg"/><feBlend in="SourceGraphic" in2="bg"/></filter><mask id="mask" x="-1.76" y="0.81" width="174.52" height="174.6" maskUnits="userSpaceOnUse"><g class="cls-26"><g transform="translate(-27.53 -24.52)"><rect class="cls-1" x="4.45" y="52.49" width="168.99" height="124.58" transform="translate(-26.76 202.53) rotate(-89.4)"/></g></g></mask><linearGradient id="linear-gradient-5" x1="103.08" y1="86.23" x2="103.08" y2="-5.04" gradientUnits="userSpaceOnUse"><stop offset="0" stop-color="#fff"/><stop offset="0.17" stop-color="#fff" stop-opacity="0.87"/><stop offset="0.54" stop-color="#fff" stop-opacity="0.62"/><stop offset="0.8" stop-color="#fff" stop-opacity="0.46"/><stop offset="0.94" stop-color="#fff" stop-opacity="0.4"/></linearGradient><clipPath id="clip-path-2" transform="translate(-27.53 -24.52)"><polygon class="cls-3" points="88.95 198.64 150.36 30.93 27.53 30.93 88.95 198.64"/></clipPath><linearGradient id="linear-gradient-7" x1="6396.93" y1="4451.59" x2="6397.83" y2="4451.59" gradientTransform="matrix(0, -185.52, -185.52, 0, 825942.78, 1186957.27)" xlink:href="#linear-gradient-2"/><linearGradient id="linear-gradient-8" x1="6354.58" y1="4452.01" x2="6355.49" y2="4452.01" gradientTransform="matrix(0, 185.52, -185.52, 0, 826041.1, -1178926.62)" gradientUnits="userSpaceOnUse"><stop offset="0" stop-color="#fff"/><stop offset="1" stop-color="#fff" stop-opacity="0"/></linearGradient><clipPath id="clip-path-3" transform="translate(-27.53 -24.52)"><polygon class="cls-4" points="172.27 198.64 233.69 30.93 110.85 30.93 172.27 198.64"/></clipPath><linearGradient id="linear-gradient-10" x1="6396.89" y1="4451.64" x2="6397.8" y2="4451.64" gradientTransform="matrix(0, -185.52, -185.52, 0, 826034.78, 1186957.27)" xlink:href="#linear-gradient-3"/><linearGradient id="linear-gradient-11" x1="6354.58" y1="4380.44" x2="6355.49" y2="4380.44" gradientTransform="matrix(0, 185.52, 185.52, 0, -812556.32, -1178926.62)" xlink:href="#linear-gradient-8"/><clipPath id="clip-path-4" transform="translate(-27.53 -24.52)"><polygon class="cls-5" points="131.35 198.64 192.76 30.93 69.93 30.93 131.35 198.64"/></clipPath></defs><title>Watt_white</title><g class="cls-6"><g id="Layer_1" data-name="Layer 1"><line class="cls-7" x1="209.05" y1="134.41" x2="486.71" y2="134.41"/><path class="cls-10" d="M244,100.85v-39h7.46v39Z" transform="translate(-27.53 -24.52)"/><path class="cls-10" d="M259,100.85v-39h8.15L277.49,85h.11V61.86h6.8v39h-7.13L265.88,75.68h-.11v25.17Z" transform="translate(-27.53 -24.52)"/><path class="cls-10" d="M292,100.85v-39h8.15L310.48,85h.11V61.86h6.8v39h-7.12l-11.4-25.17h-.11v25.17Z" transform="translate(-27.53 -24.52)"/><path class="cls-10" d="M323.87,74.39c0-9.61,5.08-13.07,12.32-13.07s12.31,3.46,12.31,13.07V88.32c0,9.61-5.08,13.07-12.31,13.07s-12.32-3.46-12.32-13.07Zm7.46,14.9c0,4.32,1.89,5.51,4.86,5.51s4.86-1.19,4.86-5.51V73.42c0-4.32-1.89-5.51-4.86-5.51s-4.86,1.19-4.86,5.51Z" transform="translate(-27.53 -24.52)"/><path class="cls-10" d="M352,61.86h7.34l6.86,27.86h.11l6.8-27.86h7.29l-9.93,39H362Z" transform="translate(-27.53 -24.52)"/><path class="cls-10" d="M379.93,100.85l9.66-39h9.56l9.4,39h-7.13l-1.89-8.21H389.21l-2.1,8.21Zm10.63-14.8H398l-3.62-15.77h-.1Z" transform="translate(-27.53 -24.52)"/><path class="cls-10" d="M432.2,61.86v6.59h-8.7v32.4h-7.45V68.45h-8.69V61.86Z" transform="translate(-27.53 -24.52)"/><path class="cls-10" d="M437.06,100.85v-39h7.45v39Z" transform="translate(-27.53 -24.52)"/><path class="cls-10" d="M451,74.39c0-9.61,5.08-13.07,12.31-13.07s12.31,3.46,12.31,13.07V88.32c0,9.61-5.07,13.07-12.31,13.07S451,97.93,451,88.32Zm7.45,14.9c0,4.32,1.89,5.51,4.86,5.51s4.86-1.19,4.86-5.51V73.42c0-4.32-1.89-5.51-4.86-5.51s-4.86,1.19-4.86,5.51Z" transform="translate(-27.53 -24.52)"/><path class="cls-10" d="M482.1,100.85v-39h8.15L500.62,85h.11V61.86h6.8v39H500.4L489,75.68h-.11v25.17Z" transform="translate(-27.53 -24.52)"/><path class="cls-10" d="M298.87,133.29c0,4.32,1.89,5.51,4.86,5.51s4.86-1.19,4.86-5.51V130.7H316v1.62c0,9.61-5.07,13.07-12.31,13.07s-12.31-3.46-12.31-13.07V118.39c0-9.61,5.08-13.07,12.31-13.07S316,108.78,316,118.39v.11h-7.45v-1.08c0-4.32-1.89-5.51-4.86-5.51s-4.86,1.19-4.86,5.51Z" transform="translate(-27.53 -24.52)"/><path class="cls-10" d="M322.09,144.85v-39H342.5v6.59h-13v9h9.89V128h-9.89v10.26H343v6.59Z" transform="translate(-27.53 -24.52)"/><path class="cls-10" d="M349.52,144.85v-39h8.16L368.05,129h.1V105.86H375v39h-7.13l-11.39-25.17h-.11v25.17Z" transform="translate(-27.53 -24.52)"/><path class="cls-10" d="M404.66,105.86v6.59H396v32.4h-7.45v-32.4h-8.69v-6.59Z" transform="translate(-27.53 -24.52)"/><path class="cls-10" d="M409.09,144.85v-39H429.5v6.59h-13v9h9.88V128h-9.88v10.26H430v6.59Z" transform="translate(-27.53 -24.52)"/><path class="cls-10" d="M453.58,144.85,447.1,129h-3.56v15.88h-7.45v-39h10.8c9,0,13.23,4.32,13.23,11.66,0,4.86-1.73,8.37-5.89,9.94l7.34,17.39Zm-10-22h3.83c3.3,0,5.29-1.62,5.29-5.4s-2-5.4-5.29-5.4h-3.83Z" transform="translate(-27.53 -24.52)"/><polygon class="cls-11" points="103.04 60.73 83.33 6.42 122.83 6.42 103.04 60.73"/><polygon class="cls-3" points="61.42 174.13 122.83 6.42 0 6.42 61.42 174.13"/><g class="cls-12"><rect class="cls-13" width="122.83" height="167.71"/></g><polygon class="cls-14" points="103.03 6.41 112.91 33.39 61.37 174.13 51.49 147.15 103.03 6.41"/><polygon class="cls-4" points="144.74 174.13 206.16 6.42 83.33 6.42 144.74 174.13"/><g class="cls-15"><rect class="cls-16" x="83.33" y="6.42" width="122.83" height="167.71"/></g><polygon class="cls-17" points="103.07 6.42 93.19 33.39 144.73 174.13 154.61 147.16 103.07 6.42"/><g class="cls-18"><polygon class="cls-5" points="103.82 174.13 165.24 6.42 42.4 6.42 103.82 174.13"/><g class="cls-19"><rect class="cls-5" x="42.4" y="6.42" width="122.83" height="167.71"/></g></g><polygon class="cls-10" points="165.2 6.62 103.69 165.95 42.55 6.62 103.82 178.26 165.2 6.62"/><polygon class="cls-10" points="74.72 83.62 102.83 1.3 132.31 86.87 102.83 16.32 74.72 83.62"/><text class="cls-20" transform="translate(263.94 28.48) scale(1.1 1)">WA<tspan class="cls-21" x="35.61" y="0">TT </tspan><tspan x="72.36" y="0">F</tspan><tspan class="cls-22" x="86.82" y="0">AMI</tspan><tspan class="cls-23" x="133.56" y="0">L</tspan><tspan class="cls-24" x="145.83" y="0">Y</tspan></text><text class="cls-25" transform="translate(212.66 166.48)">CLEMSON UNIVERSITY</text></g></g></svg>