<svg id="Layer_1" data-name="Layer 1" xmlns="http://www.w3.org/2000/svg" viewBox="0 0 180.85 69.52"><defs><style>.cls-1{fill:#231f20;fill-rule:evenodd;}</style></defs><title>4imprint Logo Black-01</title><path class="cls-1" d="M33.5,57.7V57c2.52-.54,2.62-1.12,2.65-4.88V42.88c0-2,0-2.66-2.07-4.4V38l4.32-2.09.37.18v16c0,4,.14,4.34,2.65,4.88v.75Z"/><path class="cls-1" d="M48.29,52.08c0,4,.14,4.34,2.38,4.87v.75H43.19V57c2.35-.53,2.45-1.11,2.48-4.87v-9.2c0-2,0-2.65-1.66-4.38V38l4-2.15.38.2-.27,3.74c1.56-1.94,3.46-3.94,5.64-3.94,1.77,0,3.54,1.47,4.15,3.94,1.6-1.94,3.43-3.94,5.64-3.94,5,0,4.42,7.31,4.42,9.91v6.31c0,4,.14,4.34,2.39,4.87v.75H62.87V57c2.35-.53,2.45-1.11,2.49-4.87V47c0-1.83.54-8.57-3.85-8.57-1.46,0-2.41.91-3.4,2.36V52.11c0,4,.14,4.34,2.38,4.87v.75H53V57c2.35-.53,2.45-1.11,2.48-4.87V47c0-2.6.41-8.57-3.8-8.57-1.47,0-2.49,1-3.44,2.41V52.11Z"/><path class="cls-1" d="M76.69,39.64a4.17,4.17,0,0,1,3.19-1.4c1.76,0,5.74,2,5.74,9.35,0,4-1.39,9.1-4.72,9.1-4,0-4.21-4.5-4.21-7.12V39.64Zm0,18.42,2.27.15c5.54.33,9.55-6.12,9.55-12.27,0-5.23-2.55-10.08-6.42-10.08-2,0-3.84,1.38-5.4,2.91l.13-2.91-.37-.2L72.4,38v.48c1.7,1.74,1.67,2.37,1.67,4.41v21c0,3.77-.14,4.35-2.49,4.88v.75h8.81v-.75c-3.57-.53-3.7-.92-3.7-4.88V58.06Z"/><path class="cls-1" d="M95.39,52.07c0,4,.13,4.34,3.4,4.88v.75h-8.5V57c2.34-.54,2.44-1.11,2.48-4.88V42.89c0-2,0-2.65-1.67-4.39V38l4-2.11.37.19-.13,5.68h.07c.74-2.56,2.65-5.87,4.79-5.87,1,0,1.73.86,1.73,2.21a4,4,0,0,1-1.76,3c-.58-.62-1.43-1.68-2.18-1.59-2.89.39-2.65,7-2.65,7.68v4.88Z"/><path class="cls-1" d="M103.55,57.7V57c2.51-.54,2.62-1.12,2.65-4.88V42.88c0-2,0-2.66-2.07-4.4V38l4.31-2.09.38.18v16c0,4,.14,4.34,2.65,4.88v.75Zm5.52-28.9c0,1.35-.78,2.46-1.73,2.46s-1.74-1.11-1.74-2.46.79-2.46,1.74-2.46S109.07,27.45,109.07,28.8Z"/><path class="cls-1" d="M115.72,42.88c0-2,0-2.65-1.67-4.38V38l4-2.15.38.2-.28,3.54c1.94-2,3.8-3.74,6-3.74,4.08,0,4.29,4.8,4.29,7.64v8.58c0,4,.13,4.34,2.65,4.87v.75h-7.92V57c2.51-.53,2.61-1.11,2.65-4.87V46.59c0-3.37.1-8.14-4-8.14-1.39,0-2.34.62-3.46,2.07V52.13c0,3.95.14,4.34,2.65,4.87v.75h-7.92V57c2.51-.53,2.62-1.11,2.65-4.87v-9.2Z"/><path class="cls-1" d="M137.81,49.25c0,4.3,0,7,3.74,7a5.68,5.68,0,0,0,2-.34l.14.77a11.52,11.52,0,0,1-5.37,1.52c-3.3,0-3.13-2.43-3.13-6.16V38.91h-2.28l-.17-.34,4.76-6.71h.31v5h5.37v2h-5.37V49.25Z"/><path class="cls-1" d="M42.94,29c24-6.59,48.13-12.73,48.13-12.73,34.49-8.8,60.36-8.12,60.36-8.12,8.14,0,14.33,2.52,15.48,6.93,1.23,4.75.28,10-11.2,21.78l1.35.67C180,17.8,181.93,11.53,180.5,6c-1-3.81-6.34-6-13.36-6,0,0-22.33-.59-52.09,7,0,0-49.92,12.71-72.14,19.89V29Z"/><path class="cls-1" d="M150.9,49.3a4.09,4.09,0,1,0-4.09-4.09h0A4.09,4.09,0,0,0,150.9,49.3Z"/><path class="cls-1" d="M25.74,21.85l-3-.17L0,46.28l.25,1.28h18V49c0,5,.06,6.91-6.47,7.94v.76h17v-.76c-5.63-1-5.12-2.92-5.12-7.94V47.59h5.15V44.27H23.7V32.65l-5.45,1.81v9.81H5.15L25.7,21.88Z"/><path class="cls-1" d="M39,28.8c0,1.35-.78,2.46-1.73,2.46s-1.73-1.11-1.73-2.46.78-2.46,1.73-2.46S39,27.45,39,28.8Z"/><path class="cls-1" d="M146.39,37h-.7v1.9H146v-.83h.44l.4.83h.33l-.43-.87a.51.51,0,0,0,.28-.89,1,1,0,0,0-.61-.14Zm0-.7A1.68,1.68,0,1,1,144.66,38h0A1.68,1.68,0,0,1,146.34,36.3Zm0,.22A1.46,1.46,0,1,1,144.88,38h0A1.46,1.46,0,0,1,146.34,36.52Zm.14.69a.45.45,0,0,1,.31.1.27.27,0,0,1,.09.22c0,.25-.19.35-.45.35H146v-.67Z"/></svg>