<?xml version="1.0" encoding="utf-8"?>
<!-- Generator: Adobe Illustrator 21.0.2, SVG Export Plug-In . SVG Version: 6.00 Build 0)  -->
<svg version="1.1" id="Layer_1" xmlns="http://www.w3.org/2000/svg" xmlns:xlink="http://www.w3.org/1999/xlink" x="0px" y="0px"
	 viewBox="0 0 544.7 202.6" style="enable-background:new 0 0 544.7 202.6;" xml:space="preserve">
<style type="text/css">
	.st0{stroke:#FFFFFF;stroke-miterlimit:10;}
</style>
<title>Fusion360-white</title>
<path class="st0" d="M194.8,149.7c4.3-5.7,13.8-7.7,21.2-4.4s10,10.6,5.7,16.4s-13.8,7.7-21.2,4.4S190.5,155.4,194.8,149.7z"/>
<path class="st0" d="M194.8,89.8c4.3-5.7,13.8-7.7,21.2-4.4s10,10.6,5.7,16.4s-13.8,7.7-21.2,4.4S190.5,95.6,194.8,89.8z"/>
<path class="st0" d="M194.8,30c4.3-5.7,13.8-7.7,21.2-4.4s10,10.6,5.7,16.3s-13.8,7.7-21.2,4.4S190.5,35.7,194.8,30z"/>
<polygon class="st0" points="222.1,177.2 233.1,168.7 266.1,194.1 255.1,202.6 "/>
<path class="st0" d="M223.8,135c-14.9-6.6-33.9-2.7-42.5,8.8s-3.5,26.1,11.4,32.7c4.9,2.1,10.2,3.2,15.5,3.2v12
	c-8,0.1-16-1.6-23.3-4.8c-22.3-9.9-30-31.9-17.1-49.1s41.4-23.1,63.7-13.1c14.9,6.7,23.3,18.7,23.3,31.1h-15.5
	C239.3,147.4,233.7,139.4,223.8,135L223.8,135z"/>
<path class="st0" d="M161.6,35.7C161.6,16,182.3,0,207.9,0s46.3,16,46.3,35.7c0,4.2-1,8.3-2.7,12.1h-17c2.7-3.4,4.2-7.7,4.3-12.1
	c0-13.1-13.8-23.8-30.9-23.8S177,22.5,177,35.7s13.8,23.8,30.9,23.8v11.9C182.3,71.4,161.6,55.4,161.6,35.7L161.6,35.7z"/>
<path class="st0" d="M254.2,95.1c0,19.7-20.7,35.7-46.3,35.7s-46.3-16-46.3-35.7c0-4.2,1-8.3,2.7-12.1h17c-2.7,3.4-4.2,7.7-4.3,12.1
	c0,13.1,13.8,23.8,30.9,23.8s30.9-10.6,30.9-23.8S225,71.3,207.9,71.3V59.4C233.5,59.5,254.2,75.5,254.2,95.1z"/>
<path class="st0" d="M295,19v88.8h-20.8V19H295z"/>
<path class="st0" d="M346.1,109.2c-12,0-21.2-4.5-27.8-13.5s-9.8-19.8-9.8-32.6c0-13,3.3-23.8,9.9-32.5c6.6-8.7,16.1-13,28.3-13
	c12.4,0,21.7,4.6,28.1,13.9c6.3,9.4,9.7,20.5,9.5,31.8c0,12.9-3.3,23.7-9.8,32.6S358.6,109.2,346.1,109.2z M346.7,34.6
	c-10.9,0-16.4,9.6-16.4,28.8s5.5,28.8,16.4,28.8c10.6,0,15.8-9.6,15.8-28.8S357.3,34.6,346.7,34.6z"/>
<path class="st0" d="M466.3,19v88.8h-17.8l-34.8-60c0,1.5,0.1,2.5,0.1,3c0.2,1.3,0.3,2.5,0.3,3.8v53.2h-16.2V19h22.4l30.2,52.4
	c-0.2-2-0.4-3.9-0.4-5.9V19H466.3z"/>
<path class="st0" d="M63.2,39H21.6v19.9h32.9v16.6H21.6v34.7H0V21.4h63.2V39z"/>
<path class="st0" d="M143.9,21.4v55.3c0,8.9-1,15.6-3.1,19.9s-5.8,7.9-11.3,10.7s-12.5,4.2-21,4.2s-15.3-1.3-20.4-3.8
	c-4.8-2.3-8.8-6-11.4-10.7c-2.5-4.6-3.8-11.4-3.8-20.4V21.4h22.6v55.3c0,4.8,0.4,8.3,1.2,10.5c0.9,2.3,2.6,4.3,4.8,5.4
	c2.8,1.4,5.8,2.1,8.9,2c3.3,0.1,6.5-0.6,9.5-2c2.2-1,4-2.9,4.9-5.2c0.8-2.1,1.2-5.7,1.2-10.8V21.4H143.9z"/>
<path class="st0" d="M428.9,144.4h5.3c3,0,5.1-0.6,6.2-1.9c1-1.1,1.6-2.5,1.6-4c0-1.6-0.7-3.2-1.8-4.3c-1.3-1.3-3.1-2-5-1.9
	c-4.1,0-6.7,2.2-7.7,6.5l-10.4-1.7c0.8-3.9,3.1-7.3,6.3-9.6c3.5-2.6,7.8-3.9,12.2-3.8c4.5-0.2,9,1.1,12.8,3.6
	c3.4,2.2,5.3,5.9,5.2,9.9c0,5.5-2.9,9.2-8.6,11.3c6.8,1.8,10.1,5.8,10.1,11.9c0.1,4.3-1.8,8.3-5.2,10.9c-3.5,2.9-8.2,4.3-14.3,4.3
	c-5.8,0-10.4-1.5-13.9-4.4c-3.3-2.7-5.5-6.6-6.1-10.9l10.7-1.5c1,5.2,4,7.8,9,7.8c2,0.1,4-0.5,5.6-1.8c1.4-1.2,2.2-3,2.2-4.9
	c0.1-1.9-0.6-3.7-2-4.9c-1.3-1.1-3.8-1.6-7.5-1.6H429v-9L428.9,144.4z"/>
<path class="st0" d="M499.7,137.1l-10.1,2.7c-1-5.2-3.5-7.7-7.5-7.7c-5.9,0-8.9,5.6-8.9,16.9c2.4-3.9,6.1-5.8,11.3-5.8
	c8.6-0.2,15.7,6.5,16,15.1c0,0.1,0,0.3,0,0.4c0,4.4-1.7,8.7-4.9,11.8c-3.3,3.4-7.7,5.1-13.2,5.1c-5.4,0-9.7-1.4-12.8-4.2
	c-3-2.6-5.2-6.1-6.4-9.9c-1.1-3.6-1.7-7.4-1.7-11.2c0-7.7,1.7-14.1,5.2-19.1s8.6-7.5,15.5-7.5c4.9,0,8.9,1.3,11.9,3.9
	C497,130.1,498.9,133.4,499.7,137.1z M481.3,167.1c2,0,4-0.8,5.4-2.2c1.5-1.5,2.1-3.5,2.1-6.1c0.1-2.1-0.8-4.1-2.3-5.5
	c-1.4-1.3-3.2-2-5.1-2c-2,0-3.9,0.8-5.3,2.2c-1.5,1.5-2.4,3.6-2.3,5.8c-0.1,2.1,0.7,4.1,2.1,5.6
	C477.3,166.4,479.3,167.2,481.3,167.1z"/>
<path class="st0" d="M524.9,175.6c-6.2,0-11-2.4-14.4-7.3s-5.1-11.1-5.1-18.6c0-7.3,1.7-13.5,5-18.5s8.2-7.5,14.6-7.5
	s11.2,2.5,14.6,7.5s5.1,11.1,5.1,18.4s-1.7,13.6-5.1,18.6S531.3,175.6,524.9,175.6z M525,132.1c-2.6-0.1-4.9,1.5-5.8,3.9
	c-1.1,2.6-1.6,7.1-1.6,13.5s0.6,11,1.7,13.5c0.9,2.4,3.2,3.9,5.7,3.8c2.5,0.1,4.8-1.4,5.7-3.7c1.2-2.5,1.8-6.9,1.8-13.1
	c0-6.9-0.6-11.6-1.7-14.1C529.9,133.5,527.5,132,525,132.1L525,132.1z"/>
</svg>
