<?xml version="1.0" encoding="utf-8"?>
<!-- Generator: Adobe Illustrator 22.0.1, SVG Export Plug-In . SVG Version: 6.00 Build 0)  -->
<svg version="1.1" id="Layer_1" xmlns="http://www.w3.org/2000/svg" xmlns:xlink="http://www.w3.org/1999/xlink" x="0px" y="0px"
	 viewBox="0 0 361.9 369.1" style="enable-background:new 0 0 361.9 369.1;" xml:space="preserve">
<style type="text/css">
	.st0{display:none;}
	.st1{fill:none;stroke:#000000;}
</style>
<rect x="-68.5" y="-87" class="st0" width="546.7" height="590"/>
<g>
	<path d="M238.9,4.3l-59.3,161.8L120.3,4.3L238.9,4.3 M241.1,2.8H118.2l61.4,167.7L241.1,2.8L241.1,2.8z"/>
</g>
<g>
	<path d="M161.3,4.3h35.2l-17.6,48.4L161.3,4.3 M159.2,2.8l19.7,54.3l19.8-54.3H159.2L159.2,2.8z"/>
</g>
<g>
	<path d="M196.5,4.3l-59.3,161.8L77.9,4.3L196.5,4.3 M198.7,2.8H75.8l61.4,167.7L198.7,2.8L198.7,2.8z"/>
</g>
<g>
	<path d="M178.9,7.1l8.3,22.6l-49.9,136.4l-8.3-22.6L178.9,7.1 M178.9,2.8l-51.5,140.7l9.9,27l51.4-140.7L178.9,2.8L178.9,2.8z"/>
</g>
<g>
	<path d="M178.9,7.1l49.9,136.4l-8.3,22.6L170.6,29.8L178.9,7.1 M178.9,2.8l-9.9,27l51.5,140.7l9.9-27L178.9,2.8L178.9,2.8z"/>
</g>
<g>
	<path d="M279.8,4.3l-59.3,161.8L161.2,4.3L279.8,4.3 M282,2.8H159.2l61.4,167.7L282,2.8L282,2.8z"/>
</g>
<g>
	<path d="M179.6,174.6L118.3,3l61.1,159.3L240.9,3L179.6,174.6z M178.7,12.7l29.5,71.6L178.7-2.3l-29.1,86.6L178.7,12.7z"/>
</g>
<g>
	<path d="M32.1,345.2c-1,4.2-3.3,7-7.9,7c-5,0-8.6-3.7-8.6-11.5c0-7.3,3.2-11.5,8.6-11.5c4.2,0,6.6,2.4,7.6,6.5l-2.3,0.7
		c-0.8-3.2-2.2-5.1-5.6-5.1c-3.2,0-5.8,3-5.8,9.4c0,6.5,2.5,9.4,6.3,9.4c3.4,0,4.8-2.6,5.5-5.3L32.1,345.2z"/>
	<path d="M36.7,351.9v-22.4h2.5v20.3h10.6v2.1H36.7z"/>
	<path d="M67.3,329.5v2.1H56.4v7.5h7.8v2.1h-7.8v8.6H68v2.1H54v-22.4L67.3,329.5L67.3,329.5z"/>
	<path d="M89.7,351.9v-20.5h-0.1l-6.3,20.5h-1.9l-6.3-20.5H75v20.5h-2.2v-22.4h3.8l5.7,18.1h0.1l5.6-18.1h3.9v22.4H89.7z"/>
	<path d="M109.2,335.2c-0.6-2.2-2.3-3.9-5.2-3.9c-2.6,0-4.2,1.2-4.2,3.5c-0.1,4.9,12.6,3.7,12.6,10.9c0,3.3-1.8,6.6-7.5,6.6
		c-4.9,0-6.8-3.2-8-5.8l2.3-0.8c0.9,2.4,2.6,4.5,5.9,4.5s4.9-1.7,4.9-4c0-5.7-12.6-4-12.6-11.1c0-3.2,2.7-5.8,6.7-5.8
		c3.5,0,6.2,1.8,7.4,5.5L109.2,335.2z"/>
	<path d="M124.6,329.2c5.5,0,8.7,4,8.7,11.5s-3.3,11.5-8.7,11.5c-5.5,0-8.7-4-8.7-11.5C115.8,333.2,119.1,329.2,124.6,329.2z
		 M124.6,350.1c3.9,0,6.3-3,6.3-9.4s-2.3-9.4-6.3-9.4c-3.9,0-6.3,3-6.3,9.4S120.6,350.1,124.6,350.1z"/>
	<path d="M138.3,351.9v-22.4h3.6l9.8,17.2h0.1v-17.2h2.2v22.4h-2l-11.3-20h-0.1v20H138.3z"/>
	<path d="M172.6,329.5v15.8c0,2.6,1.9,4.8,5.4,4.8s5.4-2.2,5.4-4.8v-15.8h2.5v15.6c0,4.5-3.2,7.1-7.8,7.1c-4.6,0-7.8-2.6-7.8-7.1
		v-15.6H172.6z"/>
	<path d="M192.5,351.9v-22.4h3.6l9.7,17.3h0.1v-17.2h2.2V352h-2l-11.3-20h-0.1v20L192.5,351.9L192.5,351.9z"/>
	<path d="M217.9,329.5v22.4h-2.5v-22.4H217.9z"/>
	<path d="M222.4,329.5h2.5l5.5,18.4h0.1l5.5-18.4h2.5l-6.9,22.4h-2.3L222.4,329.5z"/>
	<path d="M255.9,329.5v2.1H245v7.5h7.8v2.1H245v8.6h11.6v2.1h-14v-22.4L255.9,329.5L255.9,329.5z"/>
	<path d="M261.1,351.9v-22.4h7.2c4.8,0,7.5,2.2,7.5,5.9c0,3.2-1.8,5-4.5,5.8l4.7,10.7h-2.7l-4.5-10.2h-5.2v10.2H261.1z M263.6,339.6
		h4.5c3.4,0,5.2-1.3,5.2-4.1c0-3-2-3.9-5.2-3.9h-4.5V339.6z"/>
	<path d="M292.6,335.2c-0.6-2.2-2.3-3.9-5.2-3.9c-2.6,0-4.2,1.2-4.2,3.5c-0.1,4.9,12.6,3.7,12.6,10.9c0,3.3-1.8,6.6-7.5,6.6
		c-4.9,0-6.8-3.2-8-5.8l2.3-0.8c0.9,2.4,2.6,4.5,5.9,4.5s4.9-1.7,4.9-4c0-5.7-12.6-4-12.6-11.1c0-3.2,2.7-5.8,6.7-5.8
		c3.5,0,6.2,1.8,7.4,5.5L292.6,335.2z"/>
	<path d="M304,329.5v22.4h-2.5v-22.4H304z"/>
	<path d="M317.8,331.6v20.3h-2.5v-20.3h-6.7v-2.1h15.9v2.1H317.8z"/>
	<path d="M332.6,342.5l-6.9-13h2.7l5.4,10.3l5.4-10.3h2.7l-6.9,13v9.4h-2.5L332.6,342.5L332.6,342.5z"/>
</g>
<line class="st1" x1="40.3" y1="314.3" x2="317.9" y2="314.3"/>
<g>
	<path d="M47.7,256.2v-39h7.5v39H47.7z"/>
	<path d="M62.7,256.2v-39h8.2l10.4,23.1h0.1v-23.1h6.8v39h-7.1L69.7,231h-0.1v25.2H62.7z"/>
	<path d="M95.7,256.2v-39h8.2l10.4,23.1h0.1v-23.1h6.8v39h-7.1L102.7,231h-0.1v25.2H95.7z"/>
	<path d="M127.6,229.8c0-9.6,5.1-13.1,12.3-13.1c7.2,0,12.3,3.5,12.3,13.1v13.9c0,9.6-5.1,13.1-12.3,13.1c-7.2,0-12.3-3.5-12.3-13.1
		V229.8z M135,244.7c0,4.3,1.9,5.5,4.9,5.5s4.9-1.2,4.9-5.5v-15.9c0-4.3-1.9-5.5-4.9-5.5s-4.9,1.2-4.9,5.5V244.7z"/>
	<path d="M155.7,217.2h7.3l6.9,27.9h0.1l6.8-27.9h7.3l-9.9,39h-8.5L155.7,217.2z"/>
	<path d="M183.6,256.2l9.7-39h9.6l9.4,39h-7.1l-1.9-8.2H193l-2.1,8.2H183.6z M194.3,241.4h7.4l-3.6-15.8H198L194.3,241.4z"/>
	<path d="M235.9,217.2v6.6h-8.7v32.4h-7.4v-32.4h-8.7v-6.6H235.9z"/>
	<path d="M240.8,256.2v-39h7.5v39H240.8z"/>
	<path d="M254.7,229.8c0-9.6,5.1-13.1,12.3-13.1c7.2,0,12.3,3.5,12.3,13.1v13.9c0,9.6-5.1,13.1-12.3,13.1c-7.2,0-12.3-3.5-12.3-13.1
		V229.8z M262.1,244.7c0,4.3,1.9,5.5,4.9,5.5s4.9-1.2,4.9-5.5v-15.9c0-4.3-1.9-5.5-4.9-5.5s-4.9,1.2-4.9,5.5V244.7z"/>
	<path d="M285.8,256.2v-39h8.2l10.4,23.1h0.1v-23.1h6.8v39h-7.1L292.8,231h-0.1v25.2H285.8z"/>
	<path d="M102.6,288.7c0,4.3,1.9,5.5,4.9,5.5s4.9-1.2,4.9-5.5v-2.6h7.5v1.6c0,9.6-5.1,13.1-12.3,13.1s-12.3-3.5-12.3-13.1v-13.9
		c0-9.6,5.1-13.1,12.3-13.1s12.2,3.4,12.2,13.1v0.1h-7.5v-1.1c0-4.3-1.9-5.5-4.9-5.5s-4.9,1.2-4.9,5.5L102.6,288.7L102.6,288.7z"/>
	<path d="M125.8,300.2v-39h20.4v6.6h-13v9h9.9v6.6h-9.9v10.3h13.6v6.6h-21V300.2z"/>
	<path d="M153.2,300.2v-39h8.2l10.4,23.1h0.1v-23.1h6.8v39h-7.1L160.2,275h-0.1v25.2H153.2z"/>
	<path d="M208.4,261.2v6.6h-8.7v32.4h-7.5v-32.4h-8.7v-6.6H208.4z"/>
	<path d="M212.8,300.2v-39h20.4v6.6h-13v9h9.9v6.6h-9.9v10.3h13.5v6.6h-20.9V300.2z"/>
	<path d="M257.3,300.2l-6.5-15.9h-3.6v15.9h-7.4v-39h10.8c9,0,13.2,4.3,13.2,11.7c0,4.9-1.7,8.4-5.9,9.9l7.3,17.4H257.3z
		 M247.2,278.2h3.8c3.3,0,5.3-1.6,5.3-5.4s-2-5.4-5.3-5.4h-3.8V278.2z"/>
</g>
<g>
	<path d="M75.5,189.2h2l3.5,15h0.1l3.6-15h1.8l3.7,15h0.1l3.4-15h2L91.3,208h-1.8l-3.8-15.2h-0.1L82,208h-1.8L75.5,189.2z"/>
	<path d="M101.3,208l5.8-18.8h3.1L116,208h-2.2l-1.8-5.9h-6.7l-1.8,5.9H101.3z M105.8,200.4h5.7l-2.7-9.7h-0.3L105.8,200.4z"/>
	<path d="M127.7,191v17h-2.1v-17H120v-1.8h13.3v1.8H127.7z"/>
	<path d="M147.3,191v17h-2.1v-17h-5.6v-1.8h13.3v1.8H147.3z"/>
	<path d="M185.6,189.2v1.8h-9v6.3h6.7v1.8h-6.7v8.9h-2.1v-18.8L185.6,189.2L185.6,189.2z"/>
	<path d="M190.2,208l5.8-18.8h3.1l5.8,18.8h-2.2l-1.8-5.9h-6.7l-1.8,5.9H190.2z M194.7,200.4h5.7l-2.7-9.7h-0.3L194.7,200.4z"/>
	<path d="M227.6,208v-17.2h-0.1l-5.3,17.2h-1.6l-5.3-17.2h-0.1V208h-1.9v-18.8h3.2l4.8,15.2h0.1l4.7-15.2h3.3V208H227.6z"/>
	<path d="M242.9,189.2V208h-2.1v-18.8H242.9z"/>
	<path d="M254.2,208v-18.8h2.1v17h8.9v1.8H254.2z"/>
	<path d="M274.8,200.1l-5.8-10.9h2.3l4.5,8.6l4.5-8.6h2.3l-5.8,10.9v7.9h-2V200.1z"/>
</g>
</svg>
