<?xml version="1.0" encoding="utf-8"?>
<!-- Generator: Adobe Illustrator 21.0.2, SVG Export Plug-In . SVG Version: 6.00 Build 0)  -->
<svg version="1.1" id="Layer_1" xmlns="http://www.w3.org/2000/svg" xmlns:xlink="http://www.w3.org/1999/xlink" x="0px" y="0px"
	 viewBox="0 0 572.3 229.7" style="enable-background:new 0 0 572.3 229.7;" xml:space="preserve">
<style type="text/css">
	.st0{fill:url(#SVGID_1_);}
	.st1{clip-path:url(#SVGID_4_);fill:url(#SVGID_5_);}
	.st2{fill:url(#SVGID_6_);}
	.st3{clip-path:url(#SVGID_9_);fill:url(#SVGID_10_);}
	.st4{fill:url(#SVGID_11_);}
	.st5{fill:#666666;stroke:#666666;}
	.st6{filter:url(#Adobe_OpacityMaskFilter);}
	.st7{clip-path:url(#SVGID_13_);fill:url(#SVGID_15_);}
	.st8{clip-path:url(#SVGID_13_);mask:url(#SVGID_14_);}
	.st9{clip-path:url(#SVGID_20_);fill:url(#SVGID_21_);}
	.st10{fill:#868989;}
	.st11{fill:#666666;}
	.st12{fill:#4D4D4D;}
	.st13{fill:none;}
	.st14{font-family:'TradeGothicLTStd-BdCn20';}
	.st15{font-size:30px;}
	.st16{letter-spacing:1.8;}
	.st17{fill:#808080;}
	.st18{letter-spacing:2;}
</style>
<linearGradient id="SVGID_1_" gradientUnits="userSpaceOnUse" x1="130.6089" y1="110.7416" x2="130.6089" y2="19.4766">
	<stop  offset="0" style="stop-color:#5A621C"/>
	<stop  offset="6.324667e-02" style="stop-color:#676F2E;stop-opacity:0.9595"/>
	<stop  offset="0.3857" style="stop-color:#A8AC87;stop-opacity:0.7529"/>
	<stop  offset="0.6484" style="stop-color:#D7D9C8;stop-opacity:0.5846"/>
	<stop  offset="0.8384" style="stop-color:#F4F4F0;stop-opacity:0.4629"/>
	<stop  offset="0.9366" style="stop-color:#FFFFFF;stop-opacity:0.4"/>
</linearGradient>
<polygon class="st0" points="130.6,85.2 110.9,30.9 150.4,30.9 "/>
<g>
	<defs>
		<polygon id="SVGID_2_" points="88.9,198.6 150.4,30.9 27.5,30.9 		"/>
	</defs>
	<linearGradient id="SVGID_3_" gradientUnits="userSpaceOnUse" x1="88.9464" y1="198.6407" x2="88.9464" y2="30.9317">
		<stop  offset="0" style="stop-color:#666666"/>
		<stop  offset="1" style="stop-color:#666666;stop-opacity:0.1"/>
	</linearGradient>
	<use xlink:href="#SVGID_2_"  style="overflow:visible;fill:url(#SVGID_3_);"/>
	<clipPath id="SVGID_4_">
		<use xlink:href="#SVGID_2_"  style="overflow:visible;"/>
	</clipPath>
	
		<linearGradient id="SVGID_5_" gradientUnits="userSpaceOnUse" x1="6396.9287" y1="4451.5933" x2="6397.8325" y2="4451.5933" gradientTransform="matrix(0 -185.5249 -185.5249 0 825970.3125 1186981.75)">
		<stop  offset="0" style="stop-color:#666666"/>
		<stop  offset="1" style="stop-color:#666666;stop-opacity:0.1"/>
	</linearGradient>
	<rect x="27.5" y="24.5" class="st1" width="122.8" height="167.7"/>
</g>
<linearGradient id="SVGID_6_" gradientUnits="userSpaceOnUse" x1="6354.5815" y1="4452.0112" x2="6355.4854" y2="4452.0112" gradientTransform="matrix(-8.329436e-09 185.5249 -185.5249 -8.329436e-09 826068.625 -1178902.125)">
	<stop  offset="0" style="stop-color:#FFFFFF"/>
	<stop  offset="1" style="stop-color:#FFFFFF;stop-opacity:0"/>
</linearGradient>
<polygon class="st2" points="130.6,30.9 140.4,57.9 88.9,198.6 79,171.7 "/>
<g>
	<defs>
		<polygon id="SVGID_7_" points="172.3,198.6 233.7,30.9 110.9,30.9 		"/>
	</defs>
	<linearGradient id="SVGID_8_" gradientUnits="userSpaceOnUse" x1="172.2713" y1="198.6419" x2="172.2713" y2="30.9306">
		<stop  offset="0" style="stop-color:#4D4D4D"/>
		<stop  offset="0.9975" style="stop-color:#4D4D4D;stop-opacity:0.1"/>
	</linearGradient>
	<use xlink:href="#SVGID_7_"  style="overflow:visible;fill:url(#SVGID_8_);"/>
	<clipPath id="SVGID_9_">
		<use xlink:href="#SVGID_7_"  style="overflow:visible;"/>
	</clipPath>
	
		<linearGradient id="SVGID_10_" gradientUnits="userSpaceOnUse" x1="6396.894" y1="4451.6396" x2="6397.7983" y2="4451.6396" gradientTransform="matrix(0 -185.5249 -185.5249 0 826062.3125 1186981.75)">
		<stop  offset="0" style="stop-color:#4D4D4D"/>
		<stop  offset="0.9975" style="stop-color:#4D4D4D;stop-opacity:0.1"/>
	</linearGradient>
	<rect x="110.9" y="30.9" class="st3" width="122.8" height="167.7"/>
</g>
<linearGradient id="SVGID_11_" gradientUnits="userSpaceOnUse" x1="6354.5815" y1="4380.4375" x2="6355.4854" y2="4380.4375" gradientTransform="matrix(0 185.5249 185.5249 0 -812528.8125 -1178902.125)">
	<stop  offset="0" style="stop-color:#FFFFFF"/>
	<stop  offset="1" style="stop-color:#FFFFFF;stop-opacity:0"/>
</linearGradient>
<polygon class="st4" points="130.6,30.9 120.7,57.9 172.3,198.6 182.1,171.7 "/>
<line class="st5" x1="236.6" y1="158.9" x2="514.2" y2="158.9"/>
<g>
	<defs>
		<polygon id="SVGID_12_" points="27.5,30.9 88.9,198.6 150.4,30.9 		"/>
	</defs>
	<clipPath id="SVGID_13_">
		<use xlink:href="#SVGID_12_"  style="overflow:visible;"/>
	</clipPath>
	<defs>
		<filter id="Adobe_OpacityMaskFilter" filterUnits="userSpaceOnUse" x="61.2" y="25.3" width="139.1" height="174.4">
			<feFlood  style="flood-color:white;flood-opacity:1" result="back"/>
			<feBlend  in="SourceGraphic" in2="back" mode="normal"/>
		</filter>
	</defs>
	<mask maskUnits="userSpaceOnUse" x="61.2" y="25.3" width="139.1" height="174.4" id="SVGID_14_">
		<g class="st6">
			
				<linearGradient id="SVGID_15_" gradientUnits="userSpaceOnUse" x1="6353.5693" y1="4452.0596" x2="6354.4731" y2="4452.0596" gradientTransform="matrix(-1.9431 185.5443 -185.5443 -1.9431 838489.75 -1170186.875)">
				<stop  offset="0" style="stop-color:#FFFFFF"/>
				<stop  offset="1" style="stop-color:#000000"/>
			</linearGradient>
			<polygon class="st7" points="27.5,29.6 25.8,198.6 150.4,199.9 152.1,31 			"/>
		</g>
	</mask>
	<g class="st8">
		<g>
			<defs>
				<rect id="SVGID_16_" x="61.2" y="25.3" width="139.1" height="174.4"/>
			</defs>
			<clipPath id="SVGID_17_">
				<use xlink:href="#SVGID_16_"  style="overflow:visible;"/>
			</clipPath>
		</g>
	</g>
</g>
<g>
	<defs>
		<polygon id="SVGID_18_" points="131.3,198.6 192.8,30.9 69.9,30.9 		"/>
	</defs>
	<linearGradient id="SVGID_19_" gradientUnits="userSpaceOnUse" x1="131.3466" y1="154.9235" x2="131.3466" y2="31.3816">
		<stop  offset="0" style="stop-color:#4D4D4D"/>
		<stop  offset="1" style="stop-color:#4D4D4D;stop-opacity:0.1"/>
	</linearGradient>
	<use xlink:href="#SVGID_18_"  style="overflow:visible;fill:url(#SVGID_19_);"/>
	<clipPath id="SVGID_20_">
		<use xlink:href="#SVGID_18_"  style="overflow:visible;"/>
	</clipPath>
	<linearGradient id="SVGID_21_" gradientUnits="userSpaceOnUse" x1="131.3466" y1="154.9235" x2="131.3466" y2="31.3816">
		<stop  offset="0" style="stop-color:#4D4D4D"/>
		<stop  offset="1" style="stop-color:#4D4D4D;stop-opacity:0.1"/>
	</linearGradient>
	<rect x="69.9" y="30.9" class="st9" width="122.8" height="167.7"/>
</g>
<polygon class="st10" points="192.7,31.1 131.2,190.5 70.1,31.1 131.3,202.8 "/>
<g>
	<path class="st11" d="M244,100.8v-39h7.5v39H244z"/>
	<path class="st11" d="M259,100.8v-39h8.2L277.5,85h0.1V61.9h6.8v39h-7.1l-11.4-25.2h-0.1v25.2H259z"/>
	<path class="st11" d="M292,100.8v-39h8.2L310.5,85h0.1V61.9h6.8v39h-7.1l-11.4-25.2h-0.1v25.2H292z"/>
	<path class="st11" d="M323.9,74.4c0-9.6,5.1-13.1,12.3-13.1c7.2,0,12.3,3.5,12.3,13.1v13.9c0,9.6-5.1,13.1-12.3,13.1
		c-7.2,0-12.3-3.5-12.3-13.1V74.4z M331.3,89.3c0,4.3,1.9,5.5,4.9,5.5c3,0,4.9-1.2,4.9-5.5V73.4c0-4.3-1.9-5.5-4.9-5.5
		c-3,0-4.9,1.2-4.9,5.5V89.3z"/>
	<path class="st11" d="M352,61.9h7.3l6.9,27.9h0.1l6.8-27.9h7.3l-9.9,39H362L352,61.9z"/>
	<path class="st11" d="M379.9,100.8l9.7-39h9.6l9.4,39h-7.1l-1.9-8.2h-10.3l-2.1,8.2H379.9z M390.6,86.1h7.4l-3.6-15.8h-0.1
		L390.6,86.1z"/>
	<path class="st11" d="M432.2,61.9v6.6h-8.7v32.4h-7.5V68.4h-8.7v-6.6H432.2z"/>
	<path class="st11" d="M437.1,100.8v-39h7.5v39H437.1z"/>
	<path class="st11" d="M451,74.4c0-9.6,5.1-13.1,12.3-13.1c7.2,0,12.3,3.5,12.3,13.1v13.9c0,9.6-5.1,13.1-12.3,13.1
		c-7.2,0-12.3-3.5-12.3-13.1V74.4z M458.4,89.3c0,4.3,1.9,5.5,4.9,5.5c3,0,4.9-1.2,4.9-5.5V73.4c0-4.3-1.9-5.5-4.9-5.5
		c-3,0-4.9,1.2-4.9,5.5V89.3z"/>
	<path class="st11" d="M482.1,100.8v-39h8.2L500.6,85h0.1V61.9h6.8v39h-7.1L489,75.7h-0.1v25.2H482.1z"/>
	<path class="st11" d="M298.9,133.3c0,4.3,1.9,5.5,4.9,5.5s4.9-1.2,4.9-5.5v-2.6h7.5v1.6c0,9.6-5.1,13.1-12.3,13.1
		s-12.3-3.5-12.3-13.1v-13.9c0-9.6,5.1-13.1,12.3-13.1s12.3,3.5,12.3,13.1v0.1h-7.5v-1.1c0-4.3-1.9-5.5-4.9-5.5s-4.9,1.2-4.9,5.5
		V133.3z"/>
	<path class="st11" d="M322.1,144.8v-39h20.4v6.6h-13v9h9.9v6.6h-9.9v10.3H343v6.6H322.1z"/>
	<path class="st11" d="M349.5,144.8v-39h8.2L368,129h0.1v-23.1h6.8v39h-7.1l-11.4-25.2h-0.1v25.2H349.5z"/>
	<path class="st11" d="M404.7,105.9v6.6H396v32.4h-7.5v-32.4h-8.7v-6.6H404.7z"/>
	<path class="st11" d="M409.1,144.8v-39h20.4v6.6h-13v9h9.9v6.6h-9.9v10.3H430v6.6H409.1z"/>
	<path class="st11" d="M453.6,144.8l-6.5-15.9h-3.6v15.9h-7.5v-39h10.8c9,0,13.2,4.3,13.2,11.7c0,4.9-1.7,8.4-5.9,9.9l7.3,17.4
		H453.6z M443.5,122.8h3.8c3.3,0,5.3-1.6,5.3-5.4c0-3.8-2-5.4-5.3-5.4h-3.8V122.8z"/>
</g>
<polygon class="st12" points="102.2,108.1 130.4,25.8 159.8,111.4 130.4,40.8 "/>
<rect x="244" y="31.3" class="st13" width="270" height="31.3"/>
<text transform="matrix(1.1 0 0 1 270.6128 52.6333)" class="st11 st14 st15 st16">WATT FAMILY</text>
<rect x="237" y="169.3" class="st13" width="277" height="31.3"/>
<text transform="matrix(1 0 0 1 243.217 190.6333)"><tspan x="0" y="0" class="st17 st14 st15 st18">CLEMSON UNIVER</tspan><tspan x="255.4" y="0" class="st17 st14 st15 st18">-</tspan></text>
</svg>
