<svg xmlns="http://www.w3.org/2000/svg" viewBox="0 0 1920 400"><defs><style>.cls-1{fill:#fff;}.cls-2{fill:#181818;}</style></defs><title>CUhackit-tagline</title><g id="Layer_2" data-name="Layer 2"><g id="Banner"><rect class="cls-1" x="149.01" y="165.31" width="1634.87" height="154.33"/><path class="cls-2" d="M197,279.51V189.18h17.93v90.33Z"/><path class="cls-2" d="M273.62,189.18h18.07v90.33H275v-6.32c-2.32,3.87-9.29,7.87-16.64,7.87-18.72,0-27.23-11.49-27.23-33.94,0-21.29,7.22-35,27.61-35,7.1,0,11.62,2.45,14.84,5.42ZM262,266.35c9.29,0,12.39-5.68,12.39-19.23,0-13.16-2.2-20.39-12.78-20.39-9.68,0-13,4.9-13,20.39C248.59,263.25,252.07,266.35,262,266.35Z"/><path class="cls-2" d="M354.4,277.83c-5.16,2.84-12,3.23-17.81,3.23s-12.64-.39-17.81-3.23c-9-4.9-12.38-16.64-12.38-30.58,0-10.84,1.54-25.94,12.38-31.88,5.17-2.83,12-3.22,17.81-3.22s12.65.39,17.81,3.22c7.48,4,11.74,11.49,11.74,31.75v3.23H323.69c.13,6.32,1,12.38,4.51,14.58,2.33,1.55,5.81,1.68,8.39,1.68s6.07-.13,8.39-1.68,3.48-2.84,4-5.68h17.16C364.85,268.93,361.24,274.09,354.4,277.83ZM345,228.15c-2.32-1.55-5.81-1.68-8.39-1.68s-6.06.13-8.39,1.68-3.61,5.81-4.13,10.58h24.65C348.72,235.38,348.08,230.21,345,228.15Z"/><path class="cls-2" d="M418.66,279.51V273.7c-2.07,5.81-9,7.36-18.84,7.36-14.58,0-22.07-6.58-22.07-21.81,0-9.81,6.19-19.23,23.49-19.23h16.13c0-10.06-.13-13-10.46-13-8.12,0-8.9,1.68-9.42,5.68H379.56c1.93-13.55,9.93-20.52,27.35-20.52,23.88,0,28.39,9.16,28.39,26.84v40.52Zm-1.29-27.23H406.53c-8,0-9.94,1.68-9.94,7.62,0,5,1.55,8.12,8.26,8.12,8.52,0,12.52-1,12.52-6.19Z"/><path class="cls-2" d="M510.4,281.06c-13.55,0-24.39-6.32-24.39-20.65V227.63H473.24V213.7H486V193.57L504,188.15V213.7h18.84v13.93H504v30.46c0,5.29,4.13,7.74,8.51,7.74a25.43,25.43,0,0,0,11.36-2.19v15.48C519.69,280.8,515.3,281.06,510.4,281.06Z"/><path class="cls-2" d="M577,277.83c-5.16,2.84-12,3.23-17.8,3.23s-12.65-.39-17.81-3.23c-9-4.9-12.39-16.64-12.39-30.58,0-10.84,1.55-25.94,12.39-31.88,5.16-2.83,12-3.22,17.81-3.22s12.64.39,17.8,3.22c10.84,5.94,12.39,21,12.39,31.88C589.37,261.19,586,272.93,577,277.83Zm-9.42-49.29c-2.32-1.55-5.8-1.68-8.38-1.68s-6.07.13-8.39,1.68c-3.61,2.32-4.65,10.32-4.65,18.58,0,7.48.65,14.84,4.65,17.55,2.32,1.55,5.81,1.68,8.39,1.68s6.06-.13,8.38-1.68c4-2.71,4.52-10.07,4.52-17.55C572.08,238.86,571.18,230.86,567.56,228.54Z"/><path class="cls-2" d="M650.79,219.76c3.1-3.48,7.49-7.61,17.16-7.61,20.39,0,26.2,12.64,26.2,33.94,0,22.45-8.52,35-27.23,35-6.32,0-12.26-2.84-15.23-6.2V304H633.76V213.7h17Zm12.91,7c-10.59,0-12.78,7.23-12.78,20.39,0,13.55,3.1,19.23,12.39,19.23,9.93,0,13.42-3.87,13.42-19.23C676.73,231.25,674,226.73,663.7,226.73Z"/><path class="cls-2" d="M741.5,229.31c-7.35,0-14.71,4.91-14.71,11.87v38.33H708.85V213.7h17v10.84c2.32-5.17,7.22-12.39,19.36-12.39v17.42A17.64,17.64,0,0,0,741.5,229.31Z"/><path class="cls-2" d="M799.7,277.83c-5.16,2.84-12,3.23-17.81,3.23s-12.64-.39-17.81-3.23c-9-4.9-12.38-16.64-12.38-30.58,0-10.84,1.54-25.94,12.38-31.88,5.17-2.83,12-3.22,17.81-3.22s12.65.39,17.81,3.22c10.84,5.94,12.39,21,12.39,31.88C812.09,261.19,808.73,272.93,799.7,277.83Zm-9.42-49.29c-2.32-1.55-5.81-1.68-8.39-1.68s-6.06.13-8.39,1.68c-3.61,2.32-4.64,10.32-4.64,18.58,0,7.48.64,14.84,4.64,17.55,2.33,1.55,5.81,1.68,8.39,1.68s6.07-.13,8.39-1.68c4-2.71,4.52-10.07,4.52-17.55C794.8,238.86,793.89,230.86,790.28,228.54Z"/><path class="cls-2" d="M853.12,281.06c-13.55,0-24.39-6.32-24.39-20.65V227.63H816V213.7h12.77V193.57l17.94-5.42V213.7h18.84v13.93H846.67v30.46c0,5.29,4.13,7.74,8.51,7.74a25.43,25.43,0,0,0,11.36-2.19v15.48C862.41,280.8,858,281.06,853.12,281.06Z"/><path class="cls-2" d="M919.7,277.83c-5.16,2.84-12,3.23-17.8,3.23s-12.65-.39-17.81-3.23c-9-4.9-12.39-16.64-12.39-30.58,0-10.84,1.55-25.94,12.39-31.88,5.16-2.83,12-3.22,17.81-3.22s12.64.39,17.8,3.22c10.84,5.94,12.39,21,12.39,31.88C932.09,261.19,928.74,272.93,919.7,277.83Zm-9.42-49.29c-2.32-1.55-5.8-1.68-8.38-1.68s-6.07.13-8.39,1.68c-3.61,2.32-4.65,10.32-4.65,18.58,0,7.48.65,14.84,4.65,17.55,2.32,1.55,5.81,1.68,8.39,1.68s6.06-.13,8.38-1.68c4-2.71,4.52-10.07,4.52-17.55C914.8,238.86,913.9,230.86,910.28,228.54Z"/><path class="cls-2" d="M973.13,281.06c-13.55,0-24.39-6.32-24.39-20.65V227.63H936V213.7h12.78V193.57l17.93-5.42V213.7h18.84v13.93H966.67v30.46c0,5.29,4.13,7.74,8.52,7.74a25.43,25.43,0,0,0,11.36-2.19v15.48C982.42,280.8,978,281.06,973.13,281.06Z"/><path class="cls-2" d="M1026.29,286.35c-5.94,15-13.16,19.23-36,19.23V291.51c14.19,0,15.48-2.71,21-14.71l2.45-5.29L988.09,213.7h19.23L1022.55,251l13.16-37.29h19.23Z"/><path class="cls-2" d="M1080.48,219.76c3.1-3.48,7.49-7.61,17.16-7.61,20.39,0,26.2,12.64,26.2,33.94,0,22.45-8.52,35-27.23,35-6.32,0-12.26-2.84-15.23-6.2V304h-17.93V213.7h17Zm12.91,7c-10.59,0-12.78,7.23-12.78,20.39,0,13.55,3.1,19.23,12.39,19.23,9.93,0,13.42-3.87,13.42-19.23C1106.42,231.25,1103.71,226.73,1093.39,226.73Z"/><path class="cls-2" d="M1184.74,277.83c-5.16,2.84-12,3.23-17.81,3.23s-12.64-.39-17.8-3.23c-9-4.9-12.39-16.64-12.39-30.58,0-10.84,1.55-25.94,12.39-31.88,5.16-2.83,12-3.22,17.8-3.22s12.65.39,17.81,3.22c7.49,4,11.75,11.49,11.75,31.75v3.23H1154c.13,6.32,1,12.38,4.52,14.58,2.32,1.55,5.8,1.68,8.38,1.68s6.07-.13,8.39-1.68,3.49-2.84,4-5.68h17.17C1195.2,268.93,1191.58,274.09,1184.74,277.83Zm-9.42-49.68c-2.32-1.55-5.8-1.68-8.39-1.68s-6.06.13-8.38,1.68-3.62,5.81-4.13,10.58h24.64C1179.06,235.38,1178.42,230.21,1175.32,228.15Z"/><path class="cls-2" d="M1247.84,279.51V227.63H1233.9V213.7h31.87v65.81Zm0-72.27V189.18h17.93v18.06Z"/><path class="cls-2" d="M1321,279.51V238.34c0-8.77-3.74-11.87-9.81-11.87-10.06,0-11,6.84-11,12.26v40.78h-17.94V213.7h17v9.42c2.33-7.62,10.2-11,17.81-11,16.26,0,21.81,9.68,21.81,22.07v45.29Z"/><path class="cls-2" d="M1385.9,279.51V268.28c0-10.71,7.1-20.13,15.49-28.26l17.94-17.55c3.35-3.22,4.51-5.93,4.51-10.19,0-2.58-.13-6.84-2.84-8.52a13,13,0,0,0-6.84-1.55c-3.22,0-5.8.65-7.48,2.07s-2.71,4.13-3.48,7.87h-17.55c2.83-17.68,8.77-24.52,28.51-24.52,9.3,0,15.62,1,20.39,4.52,5.42,3.87,7.87,11.22,7.87,20.39,0,9.42-5.54,16.51-12,22.45l-12.9,11.87c-9,8.26-13.29,13.81-13.29,18.2h38.71v14.45Z"/><path class="cls-2" d="M1462.29,281.06V266c18.2,0,37.17-1,37.17-17,0-10.33-5.55-14.2-27-14.2v-12.9l19-18.2h-31.22V189.18h53.16v13l-19.87,18.71c13.94,2.46,24.52,9.94,24.52,25.81C1518,270,1503.58,281.06,1462.29,281.06Z"/><path class="cls-2" d="M1573.52,279.51V238.34c0-8.77-3.74-11.87-9.81-11.87-9.29,0-11,5.94-11,11.1v41.94h-17.93V189.18h17.93v31.74c3.1-6.06,10.07-8.77,16.91-8.77,16.26,0,21.81,9.68,21.81,22.07v45.29Z"/><path class="cls-2" d="M1640.62,229.31c-7.36,0-14.71,4.91-14.71,11.87v38.33H1608V213.7h17v10.84c2.33-5.17,7.23-12.39,19.36-12.39v17.42A17.5,17.5,0,0,0,1640.62,229.31Z"/><path class="cls-2" d="M1678.29,281.06c-17.93,0-26.45-5.42-29-20.65h18.07c.77,4.13,4.13,6.07,11,6.07,4.26,0,9.81-.78,9.81-6.46,0-9.16-37-3.61-37-26.71,0-15.23,11.74-21.16,26.32-21.16,16.91,0,26.07,6.45,28.13,19.36h-18.06c-.52-3.36-4.78-4.78-10.07-4.78-3.87,0-7.87,1-7.87,5.94,0,8,36.91,2.58,36.91,27.23C1706.43,276.93,1691.71,281.06,1678.29,281.06Z"/><path class="cls-2" d="M1717.52,279.51V259.25h20.77v20.26Z"/><path class="cls-1" d="M148.68,107.34l62.61-31.68v14.2L160.78,114.2l50.51,24.35v14.19l-62.61-31.51Z"/><path class="cls-1" d="M238.05,168H223.84l53.68-113h14.22Z"/><path class="cls-1" d="M393.81,161.17a40.65,40.65,0,0,1-19.81,5H338.62V56.94h35.23c6.81,0,14.52,1.25,20.57,4.84,14.37,8.42,15,35,15,49.77S408.79,152.74,393.81,161.17ZM386,72.23A21.35,21.35,0,0,0,374,68.64H353v85.82h20.87a21.48,21.48,0,0,0,12.1-3.59c8-5.61,8.17-28.86,8.17-39.32S394.12,77.85,386,72.23Z"/><path class="cls-1" d="M430,166.16V56.94h63.21v11.7H444.32v35.42h33.73v11.7H444.32v38.7h48.85v11.7Z"/><path class="cls-1" d="M556.38,163.2c-5.59,3.43-12.55,4.84-21.62,4.84-6.81,0-14.82-.47-20.87-3.9-8-4.53-11.5-14.83-13.16-25.75h14.82c.91,6.71,2.72,12.33,6.2,14.67,3.48,2.49,8.92,2.49,13,2.49s9.52-.31,13.15-2.81c4.54-3.12,4.84-8.11,4.84-13.41,0-6.25-3.48-11.08-9.68-15.14l-27.67-18.1c-9.53-6.24-13.16-13.58-13.16-23.56,0-8.12,4.09-18.41,10.59-22.47,7-4.37,12.7-5,21-5,6.8,0,13.31.46,19.36,3.9,8,4.52,11.49,13.26,13.15,24.18H551.54c-.9-6.71-2.72-10.76-6.2-13.1-3.48-2.5-7.41-2.5-11.49-2.5s-7.86.15-11.49,2.65c-4.54,3.12-5,6.71-5,12,0,6.24,3.47,11.07,9.67,15.13l27.68,18.26c9.83,6.4,13.16,13.42,13.16,23.4S563.64,158.67,556.38,163.2Z"/><path class="cls-1" d="M586.63,166.16V56.94H601V166.16Z"/><path class="cls-1" d="M681.29,84.71c-.9-6.71-2.72-12.32-6.2-14.66-3.47-2.5-10.43-2.66-14.51-2.66s-11,.16-14.52,2.66c-5.9,4-7.26,15.6-7.26,41.5,0,26.84,1.36,37.45,7.26,41.51,3.48,2.49,10.43,2.49,14.52,2.49s11-.15,14.51-2.49,6.66-7.8,6.66-14.36V115.76H661.48v-11.7h34v62.1H683.26v-9.51C679.33,164,670.1,168,660.58,168c-6.81,0-16.34-.47-22.39-3.9-8.77-5-14.51-15.3-14.51-52.59,0-32.61,4.23-46.81,14.51-52.58,6-3.44,15.58-3.9,22.39-3.9s16.33.46,22.38,3.9c8,4.52,11.49,14.82,13.16,25.74Z"/><path class="cls-1" d="M767,166.16,731.5,72.07v94.09H717.89V56.94h21.93l35.39,95.49V56.94h13.61V166.16Z"/><path class="cls-1" d="M923.56,166.16h-41V56.94h35.84c17.39,0,26.62,12.17,26.62,28.4,0,8.42-5.6,17.63-11.95,21.06v.78c12.7,3.75,18,16.39,18,27.93C951.08,151.5,940.65,166.16,923.56,166.16ZM916,68.64H896.94v35.42h16.79c11.49,0,15.88-8.89,15.88-18.72S926.74,68.64,916,68.64ZM917.81,115H896.94v39.48h23.9c11.49,0,14.82-10.3,14.82-20C935.66,122.79,931.12,115,917.81,115Z"/><path class="cls-1" d="M1036.53,113.11c0,26.84-2.57,44.32-14.52,51-6,3.43-12.7,3.9-19.51,3.9s-13.31-.47-19.36-3.9c-10.28-5.78-14.52-19.51-14.52-51V56.94H983v56.33c0,22.93,2.27,36,8,39.94,3.48,2.5,7.41,2.66,11.49,2.66s8.17-.16,11.65-2.66c5.59-3.74,8-14.51,8-39.94V56.94h14.37Z"/><path class="cls-1" d="M1061,166.16V56.94h14.36V166.16Z"/><path class="cls-1" d="M1100.5,166.16V56.94h14.36v97.52h49v11.7Z"/><path class="cls-1" d="M1234.18,161.17a40.71,40.71,0,0,1-19.81,5H1179V56.94h35.24c6.8,0,14.52,1.25,20.57,4.84,14.36,8.42,15,35,15,49.77S1249.15,152.74,1234.18,161.17Zm-7.86-88.94a21.37,21.37,0,0,0-12-3.59h-21v85.82h20.87a21.5,21.5,0,0,0,12.1-3.59c8-5.61,8.16-28.86,8.16-39.32S1234.48,77.85,1226.32,72.23Z"/><path class="cls-1" d="M1372.85,168c-6.8,0-15-.47-20.86-3.9-10.89-6.25-14.52-23.1-14.52-52.59,0-28.71,3.32-46.19,14.52-52.58,5.89-3.44,14.06-3.9,20.86-3.9,22.23,0,30.7,6.71,34,29.64h-14.82c-2-14-5.44-17.16-19.21-17.16-4.23,0-9.37,0-13,2.5-7.11,4.68-7.26,25.59-7.26,33.54v15.92c0,7.8.15,28.87,7.26,33.55,3.63,2.49,8.77,2.49,13,2.49,13.92,0,17.4-3.27,19.36-17.47h14.67C1403.55,161.17,1395.24,168,1372.85,168Z"/><path class="cls-1" d="M1479.17,164.14c-6.05,3.58-15.58,3.9-22.38,3.9s-16.34-.32-22.39-3.9c-11.79-6.87-14.51-26.37-14.51-52.59,0-29.18,3.78-46.34,14.51-52.58,6-3.44,15.58-3.9,22.39-3.9s16.33.31,22.38,3.9c10.13,5.93,14.52,19.66,14.52,52.58C1493.69,147.28,1487.79,159.14,1479.17,164.14Zm-.3-59.61c0-8.11-.61-30.12-7.57-34.95-3.63-2.5-10.28-2.66-14.51-2.66s-10.89.16-14.52,2.66c-7.41,4.83-7.56,26.84-7.56,35v14c0,8.12.15,30.12,7.56,35,3.63,2.5,10.28,2.66,14.52,2.66s10.88-.16,14.51-2.66c7.41-4.83,7.57-26.83,7.57-35Z"/><path class="cls-1" d="M1570.66,161.17a40.71,40.71,0,0,1-19.81,5h-35.39V56.94h35.24c6.8,0,14.52,1.25,20.57,4.84,14.36,8.42,15,35,15,49.77S1585.63,152.74,1570.66,161.17Zm-7.86-88.94a21.37,21.37,0,0,0-12-3.59h-21v85.82h20.87a21.5,21.5,0,0,0,12.1-3.59c8-5.61,8.16-28.86,8.16-39.32S1571,77.85,1562.8,72.23Z"/><path class="cls-1" d="M1606.8,166.16V56.94H1670v11.7h-48.85v35.42h33.72v11.7h-33.72v38.7H1670v11.7Z"/><path class="cls-1" d="M1784.19,121.23l-62.61,31.51V138.55l50.51-24.35-50.51-24.34V75.66l62.61,31.68Z"/></g></g></svg>