<?xml version="1.0" encoding="utf-8"?>
<!-- Generator: Adobe Illustrator 22.0.1, SVG Export Plug-In . SVG Version: 6.00 Build 0)  -->
<svg version="1.1" id="Layer_1" xmlns="http://www.w3.org/2000/svg" xmlns:xlink="http://www.w3.org/1999/xlink" x="0px" y="0px"
	 viewBox="0 0 651.3 306.6" style="enable-background:new 0 0 651.3 306.6;" xml:space="preserve">
<style type="text/css">
	.st0{display:none;}
	.st1{fill:#FFFFFF;stroke:#FFFFFF;stroke-width:0.4975;stroke-miterlimit:3.8637;}
	.st2{fill:#FFFFFF;}
	.st3{font-family:'FranklinGothic-Book';}
	.st4{font-size:133.2528px;}
	.st5{font-size:75.5704px;}
</style>
<path class="st0" d="M0.4,0h650.4c0.2,0,0.5,0.1,0.5,0.2v306.4c0,0.1-0.2,0.2-0.5,0.2H0.4c-0.3,0-0.4-0.1-0.4-0.2V0.2
	C0,0.1,0.2,0,0.4,0L0.4,0z"/>
<g>
	<path class="st1" d="M261.5,203.7c4.3-5.7,13.8-7.7,21.2-4.4c7.4,3.3,10,10.6,5.7,16.4c-4.3,5.7-13.8,7.7-21.2,4.4
		C259.7,216.7,257.2,209.4,261.5,203.7L261.5,203.7z"/>
	<path class="st2" d="M261.5,143.8c4.3-5.7,13.8-7.7,21.2-4.4c7.4,3.3,10,10.6,5.7,16.4c-4.3,5.7-13.8,7.7-21.2,4.4
		C259.7,156.9,257.2,149.6,261.5,143.8L261.5,143.8z"/>
	<path class="st2" d="M261.5,84c4.3-5.7,13.8-7.7,21.2-4.4c7.4,3.3,10,10.6,5.7,16.3s-13.8,7.7-21.2,4.4
		C259.7,97,257.2,89.7,261.5,84L261.5,84z"/>
	<polygon class="st2" points="288.8,231.2 299.8,222.7 332.8,248.1 321.8,256.6 	"/>
	<path class="st2" d="M290.5,189c-14.9-6.6-33.9-2.7-42.5,8.8c-8.6,11.4-3.5,26.1,11.4,32.7c4.9,2.2,10.3,3.2,15.5,3.2v12
		c-7.9,0-16-1.5-23.3-4.8c-22.3-9.9-30-31.9-17.1-49.1s41.4-23.1,63.7-13.1c14.9,6.7,23.3,18.7,23.3,31.1H306
		C306,201.4,300.4,193.4,290.5,189L290.5,189z"/>
	<path class="st2" d="M228.3,89.7C228.3,70,249,54,274.6,54s46.3,16,46.3,35.7c0,4.2-1,8.3-2.7,12.1h-17c2.7-3.5,4.3-7.7,4.3-12.1
		c0-13.1-13.8-23.8-30.9-23.8c-17,0-30.9,10.6-30.9,23.8c0,13.1,13.8,23.8,30.9,23.8v11.9C249,125.4,228.3,109.4,228.3,89.7
		L228.3,89.7z"/>
	<path class="st2" d="M320.9,149.1c0,19.7-20.7,35.7-46.3,35.7c-25.6,0-46.3-16-46.3-35.7c0-4.2,1-8.3,2.7-12.1h17
		c-2.7,3.5-4.3,7.7-4.3,12.1c0,13.1,13.8,23.8,30.9,23.8s30.9-10.6,30.9-23.8c0-13.1-13.8-23.8-30.9-23.8v-11.9
		C300.2,113.5,320.9,129.5,320.9,149.1L320.9,149.1z"/>
</g>
<text transform="matrix(1 0 0 1 331.9893 161.8013)" class="st2 st3 st4">ION </text>
<text transform="matrix(1 0 0 1 57.8193 164.2407)" class="st2 st3 st4">FU </text>
<text transform="matrix(1 0 0 1 480.8867 228.8218)" class="st2 st3 st5">360 </text>
</svg>
