<svg id="Layer_1" data-name="Layer 1" xmlns="http://www.w3.org/2000/svg" viewBox="0 0 544.7 202.6"><defs><style>.cls-1,.cls-2{fill:#fff;}.cls-1{stroke:#fff;stroke-miterlimit:3.86;stroke-width:0.5px;}</style></defs><title>Fusion360-white</title><path class="cls-1" d="M261.5,203.7c4.3-5.7,13.8-7.7,21.2-4.4s10,10.6,5.7,16.4-13.8,7.7-21.2,4.4-10-10.7-5.7-16.4Z" transform="translate(-66.7 -54)"/><path class="cls-2" d="M261.5,143.8c4.3-5.7,13.8-7.7,21.2-4.4s10,10.6,5.7,16.4-13.8,7.7-21.2,4.4-10-10.6-5.7-16.4Z" transform="translate(-66.7 -54)"/><path class="cls-2" d="M261.5,84c4.3-5.7,13.8-7.7,21.2-4.4s10,10.6,5.7,16.3-13.8,7.7-21.2,4.4-10-10.6-5.7-16.3Z" transform="translate(-66.7 -54)"/><polygon class="cls-2" points="222.1 177.2 233.1 168.7 266.1 194.1 255.1 202.6 222.1 177.2"/><path class="cls-2" d="M290.5,189c-14.9-6.6-33.9-2.7-42.5,8.8s-3.5,26.1,11.4,32.7a38.11,38.11,0,0,0,15.5,3.2v12a56.89,56.89,0,0,1-23.3-4.8c-22.3-9.9-30-31.9-17.1-49.1s41.4-23.1,63.7-13.1c14.9,6.7,23.3,18.7,23.3,31.1H306c0-8.4-5.6-16.4-15.5-20.8Z" transform="translate(-66.7 -54)"/><path class="cls-2" d="M228.3,89.7C228.3,70,249,54,274.6,54s46.3,16,46.3,35.7a29.67,29.67,0,0,1-2.7,12.1h-17a19.85,19.85,0,0,0,4.3-12.1c0-13.1-13.8-23.8-30.9-23.8s-30.9,10.6-30.9,23.8,13.8,23.8,30.9,23.8v11.9c-25.6,0-46.3-16-46.3-35.7Z" transform="translate(-66.7 -54)"/><path class="cls-2" d="M320.9,149.1c0,19.7-20.7,35.7-46.3,35.7s-46.3-16-46.3-35.7A29.67,29.67,0,0,1,231,137h17a19.85,19.85,0,0,0-4.3,12.1c0,13.1,13.8,23.8,30.9,23.8s30.9-10.6,30.9-23.8-13.8-23.8-30.9-23.8V113.4c25.6.1,46.3,16.1,46.3,35.7Z" transform="translate(-66.7 -54)"/><path class="cls-2" d="M361.7,73v88.8H340.9V73Z" transform="translate(-66.7 -54)"/><path class="cls-2" d="M412.8,163.2c-12,0-21.2-4.5-27.8-13.5s-9.8-19.8-9.8-32.6c0-13,3.3-23.8,9.9-32.5s16.1-13,28.3-13c12.4,0,21.7,4.6,28.1,13.9a55.41,55.41,0,0,1,9.5,31.8c0,12.9-3.3,23.7-9.8,32.6S425.3,163.2,412.8,163.2Zm.6-74.6c-10.9,0-16.4,9.6-16.4,28.8s5.5,28.8,16.4,28.8c10.6,0,15.8-9.6,15.8-28.8S424,88.6,413.4,88.6Z" transform="translate(-66.7 -54)"/><path class="cls-2" d="M533,73v88.8H515.2l-34.8-60c0,1.5.1,2.5.1,3a30,30,0,0,1,.3,3.8v53.2H464.6V73H487l30.2,52.4a53.65,53.65,0,0,1-.4-5.9V73Z" transform="translate(-66.7 -54)"/><path class="cls-2" d="M129.9,93H88.3v19.9h32.9v16.6H88.3v34.7H66.7V75.4h63.2Z" transform="translate(-66.7 -54)"/><path class="cls-2" d="M210.6,75.4v55.3c0,8.9-1,15.6-3.1,19.9s-5.8,7.9-11.3,10.7-12.5,4.2-21,4.2-15.3-1.3-20.4-3.8A25.73,25.73,0,0,1,143.4,151c-2.5-4.6-3.8-11.4-3.8-20.4V75.4h22.6v55.3q0,7.2,1.2,10.5a10,10,0,0,0,4.8,5.4,18.58,18.58,0,0,0,8.9,2,20,20,0,0,0,9.5-2,9.5,9.5,0,0,0,4.9-5.2q1.2-3.15,1.2-10.8V75.4Z" transform="translate(-66.7 -54)"/><path class="cls-2" d="M495.6,198.4h5.3c3,0,5.1-.6,6.2-1.9a6,6,0,0,0,1.6-4,6.15,6.15,0,0,0-1.8-4.3,6.87,6.87,0,0,0-5-1.9c-4.1,0-6.7,2.2-7.7,6.5l-10.4-1.7a15.91,15.91,0,0,1,6.3-9.6,19.92,19.92,0,0,1,12.2-3.8,21.94,21.94,0,0,1,12.8,3.6,11.33,11.33,0,0,1,5.2,9.9c0,5.5-2.9,9.2-8.6,11.3,6.8,1.8,10.1,5.8,10.1,11.9a13.36,13.36,0,0,1-5.2,10.9c-3.5,2.9-8.2,4.3-14.3,4.3-5.8,0-10.4-1.5-13.9-4.4a17.22,17.22,0,0,1-6.1-10.9l10.7-1.5q1.5,7.8,9,7.8a8.37,8.37,0,0,0,5.6-1.8,6.29,6.29,0,0,0,2.2-4.9,6,6,0,0,0-2-4.9c-1.3-1.1-3.8-1.6-7.5-1.6h-4.6v-9Z" transform="translate(-66.7 -54)"/><path class="cls-2" d="M566.4,191.1l-10.1,2.7c-1-5.2-3.5-7.7-7.5-7.7-5.9,0-8.9,5.6-8.9,16.9,2.4-3.9,6.1-5.8,11.3-5.8a15.55,15.55,0,0,1,16,15.5,16.33,16.33,0,0,1-4.9,11.8q-4.95,5.1-13.2,5.1c-5.4,0-9.7-1.4-12.8-4.2a21.25,21.25,0,0,1-6.4-9.9,40.62,40.62,0,0,1-1.7-11.2c0-7.7,1.7-14.1,5.2-19.1s8.6-7.5,15.5-7.5c4.9,0,8.9,1.3,11.9,3.9A17,17,0,0,1,566.4,191.1Zm-18.4,30a7.32,7.32,0,0,0,5.4-2.2c1.5-1.5,2.1-3.5,2.1-6.1a7,7,0,0,0-2.3-5.5,7.34,7.34,0,0,0-5.1-2,7.25,7.25,0,0,0-5.3,2.2,7.83,7.83,0,0,0-2.3,5.8,8,8,0,0,0,2.1,5.6A7,7,0,0,0,548,221.1Z" transform="translate(-66.7 -54)"/><path class="cls-2" d="M591.6,229.6c-6.2,0-11-2.4-14.4-7.3s-5.1-11.1-5.1-18.6c0-7.3,1.7-13.5,5-18.5s8.2-7.5,14.6-7.5,11.2,2.5,14.6,7.5,5.1,11.1,5.1,18.4-1.7,13.6-5.1,18.6S598,229.6,591.6,229.6Zm.1-43.5a5.82,5.82,0,0,0-5.8,3.9c-1.1,2.6-1.6,7.1-1.6,13.5s.6,11,1.7,13.5a5.83,5.83,0,0,0,5.7,3.8,5.92,5.92,0,0,0,5.7-3.7c1.2-2.5,1.8-6.9,1.8-13.1,0-6.9-.6-11.6-1.7-14.1A6,6,0,0,0,591.7,186.1Z" transform="translate(-66.7 -54)"/></svg>