<?xml version="1.0" encoding="utf-8"?>
<!-- Generator: Adobe Illustrator 22.0.1, SVG Export Plug-In . SVG Version: 6.00 Build 0)  -->
<svg version="1.1" id="Layer_1" xmlns="http://www.w3.org/2000/svg" xmlns:xlink="http://www.w3.org/1999/xlink" x="0px" y="0px"
	 viewBox="0 0 162.0000305 134.9999237" style="enable-background:new 0 0 162.0000305 134.9999237;" xml:space="preserve">
<style type="text/css">
	.st0{fill:none;}
	.st1{fill:#FFFFFF;}
	.st2{fill:#0016FF;}
	.st3{fill:#E70000;}
	.st4{display:none;fill:#FCBA36;}
	.st5{fill:#711ED6;}
</style>
<symbol  id="Wordmark_2_" viewBox="-54 -40.4999771 108 80.9999542">
	<g>
		<rect x="-54" y="-40.4999771" class="st0" width="108" height="80.9999542"/>
	</g>
	<g>
		<path class="st1" d="M-38.2045898,19.0571747h-5.1837883c-2.2016945,0-4.0131874,1.8117237-4.0131874,4.0410423v7.8035374
			c0,2.2293186,1.8114929,4.0410404,4.0131874,4.0410404h8.9739037v-5.26758h-2.0621872v3.2049313h-6.8281517
			c-1.1146584,0-2.0343361-0.8913574-2.0343361-2.0341015v-7.6921177c0-1.1427441,0.9196777-2.0345631,2.0343361-2.0345631h4.9888
			c1.1146622,0,2.0343361,0.891819,2.0343361,2.0345631v0.8361111h2.0902748V23.098217
			C-34.1914024,20.8688984-36.0028992,19.0571747-38.2045898,19.0571747z"/>
		<path class="st1" d="M-8.8381529,32.9363174V23.098217c0-2.2293186-1.8114939-4.0410423-4.0410433-4.0410423h-3.9017677
			c-2.2295494,0-4.0410423,1.8117237-4.0410423,4.0410423v9.8381004h-2.1457539v2.0064774h7.1624107v-2.0064774h-2.9542389
			v-9.7823906c0-1.1146584,0.9475307-2.0345631,2.0902748-2.0345631h3.6786976c1.142745,0,2.034564,0.891819,2.034564,2.0345631
			v9.7823906h-2.8149633v2.0064774h7.0231361v-2.0064774H-8.8381529z"/>
		<path class="st1" d="M-36.5604591-7.6210561v7.9706659c0,1.1427444-0.9196739,2.034564-2.0343323,2.034564h-2.4247627
			c-1.1146622,0-2.0343361-0.8918196-2.0343361-2.034564v-5.9641871h2.2016945v-2.0064788h-6.5493698v2.0064788h2.2295456v13.265873
			h-2.2295456v2.0064793h4.3476753V3.9445126c0.5573311,0.3347204,1.2260818,0.5018499,1.9229164,0.5018499h2.6197472
			c2.2295494,0,4.0410423-1.8117242,4.0410423-4.0410428v-6.019897h2.2295494v-2.0064788H-36.5604591z"/>
		<path class="st1" d="M-10.3992767-6.3111815c-0.7246895-0.8080244-1.8393488-1.3098745-3.0099478-1.3098745h-3.232789
			c-2.0902729,0-3.7903481,1.6998439-3.7903481,3.790118s1.7000751,3.7624931,3.7903481,3.7624931h5.1835575v0.4737647
			c0,1.1146593-0.9196749,2.0064788-2.0343342,2.0064788h-5.9920406v2.034564h6.0756063
			c2.2016935,0,4.0131874-1.783639,4.0131874-3.9853327V-3.580013c0-1.2260792,0.8361101-2.006479,2.2852588-2.006479v-2.034564
			C-8.6156378-7.6210561-9.6748171-7.119206-10.3992767-6.3111815z M-11.458456-2.0749238h-5.1278477
			c-0.9753838,0-1.7557831-0.7803996-1.7557831-1.7560143c0-0.9751542,0.7803993-1.755554,1.7557831-1.755554h3.0935135
			c1.1146593,0,2.0343342,0.8918195,2.0343342,2.006479V-2.0749238z"/>
		<path class="st1" d="M15.4787464-7.6210561h-3.9574785c-2.2016935,0-3.9853325,1.7836394-3.9853325,3.985333v4.0967526
			c0,2.2016938,1.783639,3.9853327,3.9853325,3.9853327h7.413106V0.0153502h-2.0621891v2.3964484h-5.2394962
			c-1.1146593,0-2.0064793-0.8918194-2.0064793-2.0064788V-3.580013c0-1.1146595,0.89182-2.006479,2.0064793-2.006479h3.7344074
			c1.170599,0,2.0067101,0.8918195,2.0067101,2.3407385h2.0902729C19.4640789-5.7817068,17.6804409-7.6210561,15.4787464-7.6210561z
			"/>
		<path class="st1" d="M41.5033607-7.6210561v2.0064788h1.3098755l-3.9296227,4.152463l-1.3098755-1.0032394v-5.1557026h-4.3198204
			v2.0064788h2.2295456v13.265873h-2.2852554v2.0064793h4.3755302v-9.78193l3.260643,2.5359533h-1.1703682v2.034564h6.9114876
			v-2.034564h-2.7033157l-3.5115662-2.7311683l5.016655-5.2952075h2.4245338v-2.0064788H41.5033607z"/>
		<path class="st1" d="M7.8706555-34.8173332v2.0064774h4.5981421v8.0544624H8.483695v2.0064774h6.0475216v-10.0609398h4.5981417
			v-2.0064774H7.8706555z M12.4687977-20.6596413v3.9572468h2.0624189v-3.9572468H12.4687977z"/>
		<path class="st1" d="M39.5242767-34.8173332c-2.2297783,0-4.0408134,1.8393478-4.0408134,4.069128v6.1308556h-5.2394962v1.8674335
			h5.2394962v3.5672779h2.0619583v-3.5672779h6.2708244v-1.8674335h-6.2708244v-6.1032314
			c0-1.1146603,0.9199066-2.034565,2.034565-2.034565h5.1557045v-2.0621872H39.5242767z"/>
	</g>
</symbol>
<g id="Logo_BW_1_">
	<g id="Wordmark_1_">
	</g>
</g>
<g id="Logo_Color_4_">
	<g id="Logo_Color_2_5_">
		<rect x="81.0000153" y="53.9999695" class="st2" width="54" height="53.9999695"/>
		<rect x="27.0000153" y="26.9999847" class="st3" width="54" height="53.9999695"/>
		<rect x="27.0000153" y="53.9999695" class="st5" width="108" height="26.9999847"/>
	</g>
</g>
<g id="Logo_Color_3_">
	<g id="Logo_Color_2_3_">
	</g>
</g>
<g id="Logo_Color_2_">
	<g id="Logo_Color_2_1_">
	</g>
</g>
<g id="Logo_Color_1_">
	<g id="Logo_Color_2_2_">
		<g id="Wordmark">
		</g>
	</g>
</g>
<g id="Logo_BW">
</g>
<g id="Logo_Color">
	<g id="Logo_Color_2">
	</g>
</g>
</svg>
