<svg enable-background="new 0 0 2058.4121094 625" viewBox="0 0 2058.4121094 625" xmlns="http://www.w3.org/2000/svg"><path d="m778.2203979 414.9850159c-13.7115479 0-30.1558838-.9148254-42.036377-7.6223755-21.9331665-12.1759338-29.2396851-45.0748291-29.2396851-102.639679 0-56.0405426 6.6969604-90.1595459 29.2396851-102.65065 11.8804932-6.6976624 28.3248291-7.6124573 42.036377-7.6124573 44.7692261 0 61.8226929 13.1009674 68.5305786 57.8701477h-29.8491821c-3.9644775-27.4100342-10.9671021-33.4978333-38.6813965-33.4978333-8.5269165 0-18.8834229 0-26.2030029 4.867691-14.309082 9.1364441-14.6132812 49.9527588-14.6132812 65.4935608v31.0579834c0 15.2355347.3041992 56.3571472 14.6132812 65.493927 7.3195801 4.8673401 17.6760864 4.8673401 26.2030029 4.8673401 28.0195923 0 35.0221558-6.3916626 38.9866943-34.1073608h29.5438843c-6.7078857 45.0744935-23.4571533 58.4797059-68.5305786 58.4797059z"/><path d="m1019.4244385 307.7716064c0 52.3813171-5.1832275 86.5003052-29.2396851 99.5910339-12.185791 6.70755-25.5924072 7.6223755-39.2919922 7.6223755-13.7104492 0-26.8110962-.9148254-38.9869995-7.6223755-20.7127686-11.2611084-29.2396851-38.0722351-29.2396851-99.5910339v-109.6525268h28.9354248v109.9578247c0 44.7691956 4.5627441 70.3499451 16.1390381 77.9737244 7.0015869 4.8673401 14.9189453 5.1715698 23.1522217 5.1715698 8.2227173 0 16.4440308-.3042297 23.4469604-5.1715698 11.2709961-7.3184814 16.1503296-28.336853 16.1503296-77.9737244v-109.9578247h28.9343872v109.6525268z"/><path d="m1166.7995605 411.3257751v-105.383789c0-24.6776123-12.7850342-30.1544495-31.9736328-30.1544495-28.9346924 0-40.8165283 21.3236389-40.8165283 37.4623413v98.0758972h-28.9343262v-213.2066955h28.9343262v75.2293091c6.3933105-10.3562012 21.3237305-21.0183868 45.6844482-21.0183868 37.1566162 0 56.0401611 17.065506 56.0401611 49.9527435v109.0430298h-28.9344482z"/><path d="m1338.2529297 341.5747375h-46.6104736c-21.6160889 0-30.1428223 6.0983582-30.1428223 25.896637 0 18.2739563 9.7456055 24.3613892 32.27771 24.3613892 10.6606445 0 19.1877441-.3052673 26.8112793-3.0497131 7.9172363-2.7324219 17.6643066-9.1360779 17.6643066-19.4926453zm3.038208 69.7510376v-18.8834839c-2.7341309 5.7825012-13.0905762 16.1390381-21.3120117 18.8834839-9.1478271 3.3549805-18.2855225 3.6592407-38.0834961 3.6592407-31.0579834 0-51.4666748-14.3200378-51.4666748-49.0379639 0-22.2384644 12.1860352-45.6956482 48.7338867-45.6956482h59.0900879c0-17.9686584-.9147949-31.6685486-11.2713623-38.6817322-7.3077393-4.8673401-19.1885986-5.1726379-27.4112549-5.1726379-8.2331543 0-17.6746826.3052979-24.6762695 5.1726379-6.6972656 4.2687378-9.442749 9.4420776-10.6616211 19.1887512h-29.8505859c2.7443848-20.1035767 9.7470703-32.5830078 24.6776123-40.804657 12.185791-6.7089539 26.8005371-7.623764 40.5108643-7.623764 13.7000732 0 31.3643799.9148102 43.8544922 7.623764 21.0181885 11.5650024 23.7626953 39.2792664 23.7626953 72.1795959v79.1924133h-25.8963624z"/><path d="m1513.3540039 407.3626404c-12.1744385 6.70755-25.2764893 7.6223755-38.9868164 7.6223755-13.6999512 0-26.8007812-.9148254-38.9866943-7.6223755-21.3223877-11.5653381-29.239624-39.2923279-29.239624-72.1809998 0-25.5910034 3.6590576-61.2237244 29.239624-75.2278748 12.1859131-6.7089539 25.2867432-7.623764 38.9866943-7.623764 13.7103271 0 26.8123779.9148102 38.9868164 7.623764 17.663208 9.4417419 24.6772461 29.2396545 27.715332 49.0379333h-30.4482422c-1.8295898-12.7953186-5.7941895-22.5426941-13.1005859-27.4220276-7.0028076-4.8673401-14.9318848-5.1726379-23.1533203-5.1726379s-16.138916.3052979-23.1414795 5.1726379c-11.576416 7.6237488-14.6251221 28.0209656-14.6251221 53.611969 0 23.7522278 1.524292 42.025116 14.6251221 50.5636902 7.0025635 4.8673401 14.9200439 5.1726379 23.1414795 5.1726379s16.1505127-.3052979 23.1533203-5.1726379c8.5264893-5.4888611 12.185791-15.5401001 13.710083-28.3251953h29.8387451c-3.0380859 22.8363343-11.5648193 41.1099549-27.715332 49.942505z"/><path d="m1679.6320801 411.3257751-74.921753-76.7536315v76.7536315h-28.9343261v-213.2066955h28.9343261v121.8280945l64.5709229-63.9579315h37.1584473l-74.013794 69.1415252 86.1916504 86.1950073z"/><path d="m1763.3625488 230.1031799v-31.9841003h31.9888916v31.9841003zm3.0532227 181.2225952v-132.4885253h-38.6849365v-22.8480072h67.6206055v155.3365326h-28.935669z"/><path d="m1909.2434082 414.9850159c-29.5484619 0-50.8745117-14.0158081-50.8745117-45.085083v-90.7588196h-34.4057617v-23.1518707h34.4057617v-48.7337189l28.935791-9.1364441v57.870163h49.0355225v23.1518707h-49.0355225v84.9763184c0 17.9686584 13.7160645 26.1899414 26.8074951 26.1899414 7.9223633 0 21.0137939-2.1334839 25.28125-3.9528809v24.3617554c-6.4069824 1.8296203-16.7462158 4.2687683-30.1500244 4.2687683z"/><path d="m374.523987 250.000275h249.999039v249.998901h-249.999039z" fill="#2e3192"/><path d="m124.524956 125.000816h249.999039v249.998901h-249.999039z" fill="#ed1c24"/><path d="m124.524956 250.000275h499.998077v124.999451h-499.998077z" fill="#851f83"/><path d="m0 0h2064.554688v625h-2064.554688z" fill="none"/></svg>