<?xml version="1.0" encoding="UTF-8"?>
<svg xmlns="http://www.w3.org/2000/svg" xmlns:xlink="http://www.w3.org/1999/xlink" width="597pt" height="174pt" viewBox="0 0 597 174" version="1.1">
<g id="surface1">
<path style=" stroke:none;fill-rule:nonzero;fill:rgb(0%,8.627451%,100%);fill-opacity:1;" d="M 104.234375 69.601562 L 173.78125 69.601562 L 173.78125 139.199219 L 104.234375 139.199219 Z M 104.234375 69.601562 "/>
<path style=" stroke:none;fill-rule:nonzero;fill:rgb(90.588235%,0%,0%);fill-opacity:1;" d="M 34.6875 34.800781 L 104.234375 34.800781 L 104.234375 104.398438 L 34.6875 104.398438 Z M 34.6875 34.800781 "/>
<path style=" stroke:none;fill-rule:nonzero;fill:rgb(44.313725%,11.764706%,83.921569%);fill-opacity:1;" d="M 34.6875 69.601562 L 173.78125 69.601562 L 173.78125 104.398438 L 34.6875 104.398438 Z M 34.6875 69.601562 "/>
<path style=" stroke:none;fill-rule:nonzero;fill:rgb(0%,0%,0%);fill-opacity:1;" d="M 216.539062 115.53125 C 212.726562 115.53125 208.152344 115.277344 204.84375 113.410156 C 198.742188 110.019531 196.710938 100.859375 196.710938 84.835938 C 196.710938 69.234375 198.574219 59.734375 204.84375 56.257812 C 208.152344 54.390625 212.726562 54.136719 216.539062 54.136719 C 228.992188 54.136719 233.738281 57.785156 235.605469 70.25 L 227.300781 70.25 C 226.199219 62.617188 224.25 60.921875 216.539062 60.921875 C 214.167969 60.921875 211.285156 60.921875 209.25 62.277344 C 205.269531 64.820312 205.183594 76.183594 205.183594 80.511719 L 205.183594 89.160156 C 205.183594 93.398438 205.269531 104.847656 209.25 107.390625 C 211.285156 108.746094 214.167969 108.746094 216.539062 108.746094 C 224.335938 108.746094 226.28125 106.96875 227.386719 99.25 L 235.605469 99.25 C 233.738281 111.800781 229.078125 115.53125 216.539062 115.53125 Z M 216.539062 115.53125 "/>
<path style=" stroke:none;fill-rule:nonzero;fill:rgb(0%,0%,0%);fill-opacity:1;" d="M 287.027344 85.683594 C 287.027344 100.265625 285.585938 109.765625 278.894531 113.410156 C 275.503906 115.277344 271.773438 115.53125 267.960938 115.53125 C 264.148438 115.53125 260.503906 115.277344 257.117188 113.410156 C 251.355469 110.273438 248.984375 102.808594 248.984375 85.683594 L 248.984375 55.15625 L 257.03125 55.15625 L 257.03125 85.769531 C 257.03125 98.230469 258.300781 105.355469 261.523438 107.476562 C 263.46875 108.832031 265.671875 108.917969 267.960938 108.917969 C 270.25 108.917969 272.539062 108.832031 274.484375 107.476562 C 277.621094 105.4375 278.976562 99.585938 278.976562 85.769531 L 278.976562 55.15625 L 287.027344 55.15625 Z M 287.027344 85.683594 "/>
<path style=" stroke:none;fill-rule:nonzero;fill:rgb(0%,0%,0%);fill-opacity:1;" d="M 331.414062 114.511719 L 331.414062 85.175781 C 331.414062 78.304688 327.859375 76.78125 322.519531 76.78125 C 314.46875 76.78125 311.167969 82.714844 311.167969 87.207031 L 311.167969 114.511719 L 303.117188 114.511719 L 303.117188 55.15625 L 311.167969 55.15625 L 311.167969 76.101562 C 312.945312 73.21875 317.097656 70.25 323.875 70.25 C 334.210938 70.25 339.464844 75 339.464844 84.15625 L 339.464844 114.511719 Z M 331.414062 114.511719 "/>
<path style=" stroke:none;fill-rule:nonzero;fill:rgb(0%,0%,0%);fill-opacity:1;" d="M 382.503906 95.09375 L 369.535156 95.09375 C 363.523438 95.09375 361.148438 96.792969 361.148438 102.304688 C 361.148438 107.390625 363.863281 109.085938 370.128906 109.085938 C 373.09375 109.085938 375.46875 109 377.589844 108.238281 C 379.792969 107.476562 382.503906 105.695312 382.503906 102.808594 Z M 383.347656 114.511719 L 383.347656 109.257812 C 382.585938 110.867188 379.707031 113.75 377.417969 114.511719 C 374.875 115.445312 372.332031 115.53125 366.824219 115.53125 C 358.183594 115.53125 352.507812 111.546875 352.507812 101.878906 C 352.507812 95.6875 355.898438 89.160156 366.0625 89.160156 L 382.503906 89.160156 C 382.503906 84.15625 382.246094 80.339844 379.367188 78.390625 C 377.335938 77.035156 374.027344 76.949219 371.742188 76.949219 C 369.449219 76.949219 366.824219 77.035156 364.875 78.390625 C 363.011719 79.578125 362.25 81.019531 361.910156 83.730469 L 353.605469 83.730469 C 354.371094 78.132812 356.316406 74.660156 360.472656 72.371094 C 363.863281 70.503906 367.925781 70.25 371.742188 70.25 C 375.550781 70.25 380.464844 70.503906 383.941406 72.371094 C 389.789062 75.589844 390.550781 83.308594 390.550781 92.464844 L 390.550781 114.511719 Z M 383.347656 114.511719 "/>
<path style=" stroke:none;fill-rule:nonzero;fill:rgb(0%,0%,0%);fill-opacity:1;" d="M 434.601562 113.410156 C 431.214844 115.277344 427.570312 115.53125 423.753906 115.53125 C 419.945312 115.53125 416.300781 115.277344 412.910156 113.410156 C 406.976562 110.191406 404.773438 102.46875 404.773438 93.316406 C 404.773438 86.191406 405.792969 76.269531 412.910156 72.371094 C 416.300781 70.503906 419.945312 70.25 423.753906 70.25 C 427.570312 70.25 431.214844 70.503906 434.601562 72.371094 C 439.515625 75 441.464844 80.511719 442.3125 86.023438 L 433.839844 86.023438 C 433.332031 82.460938 432.230469 79.746094 430.195312 78.390625 C 428.246094 77.035156 426.042969 76.949219 423.753906 76.949219 C 421.46875 76.949219 419.265625 77.035156 417.316406 78.390625 C 414.097656 80.511719 413.25 86.191406 413.25 93.316406 C 413.25 99.925781 413.671875 105.015625 417.316406 107.390625 C 419.265625 108.746094 421.46875 108.832031 423.753906 108.832031 C 426.042969 108.832031 428.246094 108.746094 430.195312 107.390625 C 432.566406 105.863281 433.585938 103.066406 434.011719 99.503906 L 442.3125 99.503906 C 441.464844 105.863281 439.09375 110.949219 434.601562 113.410156 Z M 434.601562 113.410156 "/>
<path style=" stroke:none;fill-rule:nonzero;fill:rgb(0%,0%,0%);fill-opacity:1;" d="M 484.25 114.511719 L 463.40625 93.144531 L 463.40625 114.511719 L 455.355469 114.511719 L 455.355469 55.15625 L 463.40625 55.15625 L 463.40625 89.074219 L 481.367188 71.269531 L 491.703125 71.269531 L 471.117188 90.515625 L 495.09375 114.511719 Z M 484.25 114.511719 "/>
<path style=" stroke:none;fill-rule:nonzero;fill:rgb(0%,0%,0%);fill-opacity:1;" d="M 509.234375 64.0625 L 509.234375 55.15625 L 518.132812 55.15625 L 518.132812 64.0625 Z M 510.085938 114.511719 L 510.085938 77.628906 L 499.324219 77.628906 L 499.324219 71.269531 L 518.132812 71.269531 L 518.132812 114.511719 Z M 510.085938 114.511719 "/>
<path style=" stroke:none;fill-rule:nonzero;fill:rgb(0%,0%,0%);fill-opacity:1;" d="M 553.207031 115.53125 C 544.988281 115.53125 539.054688 111.628906 539.054688 102.980469 L 539.054688 77.714844 L 529.484375 77.714844 L 529.484375 71.269531 L 539.054688 71.269531 L 539.054688 57.699219 L 547.105469 55.15625 L 547.105469 71.269531 L 560.746094 71.269531 L 560.746094 77.714844 L 547.105469 77.714844 L 547.105469 101.371094 C 547.105469 106.371094 550.921875 108.660156 554.5625 108.660156 C 556.765625 108.660156 560.40625 108.066406 561.59375 107.5625 L 561.59375 114.34375 C 559.816406 114.851562 556.9375 115.53125 553.207031 115.53125 Z M 553.207031 115.53125 "/>
</g>
</svg>
