<?xml version="1.0" encoding="utf-8"?>
<!-- Generator: Adobe Illustrator 22.0.1, SVG Export Plug-In . SVG Version: 6.00 Build 0)  -->
<svg version="1.1" id="Layer_1" xmlns="http://www.w3.org/2000/svg" xmlns:xlink="http://www.w3.org/1999/xlink" x="0px" y="0px"
	 viewBox="0 0 162.0000305 134.9999237" style="enable-background:new 0 0 162.0000305 134.9999237;" xml:space="preserve">
<style type="text/css">
	.st0{fill:none;}
	.st1{fill:#FFFFFF;}
	.st2{fill:#0016FF;}
	.st3{fill:#E70000;}
	.st4{display:none;fill:#FCBA36;}
	.st5{fill:#711ED6;}
</style>
<symbol  id="Wordmark_2_" viewBox="-54 -40.4999771 108 80.9999542">
	<g>
		<rect x="-54" y="-40.4999771" class="st0" width="108" height="80.9999542"/>
	</g>
	<g>
		<path class="st1" d="M-38.2045898,19.0571747h-5.1837883c-2.2016945,0-4.0131874,1.8117237-4.0131874,4.0410423v7.8035374
			c0,2.2293186,1.8114929,4.0410404,4.0131874,4.0410404h8.9739037v-5.26758h-2.0621872v3.2049313h-6.8281517
			c-1.1146584,0-2.0343361-0.8913574-2.0343361-2.0341015v-7.6921177c0-1.1427441,0.9196777-2.0345631,2.0343361-2.0345631h4.9888
			c1.1146622,0,2.0343361,0.891819,2.0343361,2.0345631v0.8361111h2.0902748V23.098217
			C-34.1914024,20.8688984-36.0028992,19.0571747-38.2045898,19.0571747z"/>
		<path class="st1" d="M-8.8381529,32.9363174V23.098217c0-2.2293186-1.8114939-4.0410423-4.0410433-4.0410423h-3.9017677
			c-2.2295494,0-4.0410423,1.8117237-4.0410423,4.0410423v9.8381004h-2.1457539v2.0064774h7.1624107v-2.0064774h-2.9542389
			v-9.7823906c0-1.1146584,0.9475307-2.0345631,2.0902748-2.0345631h3.6786976c1.142745,0,2.034564,0.891819,2.034564,2.0345631
			v9.7823906h-2.8149633v2.0064774h7.0231361v-2.0064774H-8.8381529z"/>
		<path class="st1" d="M-36.5604591-7.6210561v7.9706659c0,1.1427444-0.9196739,2.034564-2.0343323,2.034564h-2.4247627
			c-1.1146622,0-2.0343361-0.8918196-2.0343361-2.034564v-5.9641871h2.2016945v-2.0064788h-6.5493698v2.0064788h2.2295456v13.265873
			h-2.2295456v2.0064793h4.3476753V3.9445126c0.5573311,0.3347204,1.2260818,0.5018499,1.9229164,0.5018499h2.6197472
			c2.2295494,0,4.0410423-1.8117242,4.0410423-4.0410428v-6.019897h2.2295494v-2.0064788H-36.5604591z"/>
		<path class="st1" d="M-10.3992767-6.3111815c-0.7246895-0.8080244-1.8393488-1.3098745-3.0099478-1.3098745h-3.232789
			c-2.0902729,0-3.7903481,1.6998439-3.7903481,3.790118s1.7000751,3.7624931,3.7903481,3.7624931h5.1835575v0.4737647
			c0,1.1146593-0.9196749,2.0064788-2.0343342,2.0064788h-5.9920406v2.034564h6.0756063
			c2.2016935,0,4.0131874-1.783639,4.0131874-3.9853327V-3.580013c0-1.2260792,0.8361101-2.006479,2.2852588-2.006479v-2.034564
			C-8.6156378-7.6210561-9.6748171-7.119206-10.3992767-6.3111815z M-11.458456-2.0749238h-5.1278477
			c-0.9753838,0-1.7557831-0.7803996-1.7557831-1.7560143c0-0.9751542,0.7803993-1.755554,1.7557831-1.755554h3.0935135
			c1.1146593,0,2.0343342,0.8918195,2.0343342,2.006479V-2.0749238z"/>
		<path class="st1" d="M15.4787464-7.6210561h-3.9574785c-2.2016935,0-3.9853325,1.7836394-3.9853325,3.985333v4.0967526
			c0,2.2016938,1.783639,3.9853327,3.9853325,3.9853327h7.413106V0.0153502h-2.0621891v2.3964484h-5.2394962
			c-1.1146593,0-2.0064793-0.8918194-2.0064793-2.0064788V-3.580013c0-1.1146595,0.89182-2.006479,2.0064793-2.006479h3.7344074
			c1.170599,0,2.0067101,0.8918195,2.0067101,2.3407385h2.0902729C19.4640789-5.7817068,17.6804409-7.6210561,15.4787464-7.6210561z
			"/>
		<path class="st1" d="M41.5033607-7.6210561v2.0064788h1.3098755l-3.9296227,4.152463l-1.3098755-1.0032394v-5.1557026h-4.3198204
			v2.0064788h2.2295456v13.265873h-2.2852554v2.0064793h4.3755302v-9.78193l3.260643,2.5359533h-1.1703682v2.034564h6.9114876
			v-2.034564h-2.7033157l-3.5115662-2.7311683l5.016655-5.2952075h2.4245338v-2.0064788H41.5033607z"/>
		<path class="st1" d="M7.8706555-34.8173332v2.0064774h4.5981421v8.0544624H8.483695v2.0064774h6.0475216v-10.0609398h4.5981417
			v-2.0064774H7.8706555z M12.4687977-20.6596413v3.9572468h2.0624189v-3.9572468H12.4687977z"/>
		<path class="st1" d="M39.5242767-34.8173332c-2.2297783,0-4.0408134,1.8393478-4.0408134,4.069128v6.1308556h-5.2394962v1.8674335
			h5.2394962v3.5672779h2.0619583v-3.5672779h6.2708244v-1.8674335h-6.2708244v-6.1032314
			c0-1.1146603,0.9199066-2.034565,2.034565-2.034565h5.1557045v-2.0621872H39.5242767z"/>
	</g>
</symbol>
<g id="Logo_BW_1_">
	<g id="Wordmark_1_">
	</g>
</g>
<g id="Logo_Color_4_">
	<g id="Logo_Color_2_5_">
		<rect x="81.0000153" y="53.9999695" class="st2" width="54" height="53.9999695"/>
		<rect x="27.0000153" y="26.9999847" class="st3" width="54" height="53.9999695"/>
		<rect x="27.0000153" y="53.9999695" class="st5" width="108" height="26.9999847"/>
		<path class="st1" d="M40.6056137,50.0330925c-1.1590042,0-2.6074905-0.0793419-3.6346207-0.6583099
			c-2.4488144-1.3702202-2.5281563-5.7414169-2.5281563-8.4014473V40.025547c0-2.6600304,0.0793419-7.0312271,2.5281563-8.4003754
			c1.0271301-0.5800381,2.4756165-0.6583061,3.6346207-0.6583061c3.8715706,0,5.3457909,1.1322021,5.9247589,5.0027008h-2.5538864
			c-0.368824-2.3694763-0.9745941-2.8969765-3.3708725-2.8969765c-0.7376442,0-1.5803642,0.0268021-2.2386703,0.4224281
			c-1.2640762,0.7633781-1.2898064,4.3186646-1.2898064,5.6610069v2.6868324c0,1.3166161,0.0257301,4.8718987,1.2898064,5.6620789
			c0.6583061,0.42136,1.5010262,0.42136,2.2386703,0.42136c2.4230843,0,3.0288544-0.5532341,3.3708725-2.9495125h2.5806885
			C45.9782104,48.8740845,44.5029182,50.0330925,40.6056137,50.0330925z"/>
		<path class="st1" d="M73.4253006,41.3689651c0,2.5806885-0.105072,6.6892052-2.5281525,8.0058174
			c-1.0528641,0.578968-2.2386703,0.6583099-3.3966064,0.6583099c-1.1858063,0-2.3437424-0.0793419-3.3976746-0.6583099
			c-2.4488144-1.3434143-2.5281525-5.5838089-2.5281525-8.1644974v-9.9282036h2.5281525v9.9024696
			c0,1.9223862,0.052536,5.4508629,1.3691483,6.3461189c0.632576,0.4213562,1.3166122,0.4481621,2.0017242,0.4481621
			c0.7108383,0,1.4216843-0.0268059,2.0542603-0.4481621c1.3166122-0.895256,1.3691483-4.4237328,1.3691483-6.3461189v-9.9024696
			h2.5281525V41.3689651z"/>
		<path class="st1" d="M43.2645721,77.0330734V67.920784c0-2.1325226-1.1322021-2.6064148-2.7919044-2.6064148
			c-2.4745445,0-3.5016747,1.8430405-3.5016747,3.2389908v8.4797134h-2.5281563V58.5983543h2.5013504v6.5047951
			c0.5532341-0.895256,1.8430443-1.7905083,3.9509125-1.7905083c3.2121887,0,4.8718948,1.4484901,4.8718948,4.2929344v9.4274979
			H43.2645721z"/>
		<path class="st1" d="M71.1866302,77.0330734V75.400177c-0.2369461,0.5007019-1.1322021,1.3959503-1.8441162,1.6328964
			c-0.8159103,0.2894897-1.7379684,0.3162918-2.7125626,0.3162918h-0.4470901c-2.6857643,0-4.3186646-1.2383499-4.3186646-4.2403946
			c0-1.9223862,1.0528603-3.9498367,4.2135925-3.9498367h4.8450928c0-1.5535583-0.0793457-2.7393723-0.9745941-3.3451385
			c-0.6315079-0.4213638-1.5267563-0.4470978-2.2376022-0.4470978c-0.7119141,0-1.3959503,0.0257339-2.0017242,0.4470978
			c-0.58004,0.3688202-0.8169861,0.8169861-0.9220581,1.6596985h-2.5806885
			c0.2369499-1.7379684,0.84272-2.8176346,2.1335983-3.5295486c1.0528641-0.578968,2.1850662-0.6583061,3.3708725-0.6583061
			c1.1847382,0,2.5806885,0.0793381,3.6603546,0.6583061c1.8162384,1.0013962,2.0542603,3.3976746,2.0542603,6.2421188v6.8468094
			H71.1866302z M70.9228821,71.0021744h-3.7654266c-1.8698502,0-2.6074982,0.5264282-2.6074982,2.2386703
			c0,1.580368,0.7108459,2.1067963,2.6600342,2.1067963h0.3162842c0.5521622,0,1.2640762-0.0268021,1.8430405-0.2369461
			c0.685112-0.2637558,1.553566-0.815918,1.553566-1.7122421V71.0021744z"/>
		<path class="st1" d="M98.1995087,76.6910553c-1.0528564,0.5789719-2.4488144,0.6583099-3.6335526,0.6583099
			c-1.1858063,0-2.5806885-0.0793381-3.6346207-0.6583099c-1.8430405-1.0013962-2.5281525-3.3976746-2.5281525-6.2421112
			c0-2.2118683,0.3162842-5.2932587,2.5281525-6.5047989c1.0539322-0.578968,2.4488144-0.6583061,3.6346207-0.6583061
			c1.1847382,0,2.5806961,0.0793381,3.6335526,0.6583061c1.527832,0.8169861,2.1335983,2.5281525,2.3973541,4.2403946h-2.6343002
			c-0.157608-1.1064682-0.4996262-1.9491882-1.1322021-2.3705444c-0.6057663-0.4213638-1.5535583-0.4470978-2.2644043-0.4470978
			c-0.7108383,0-1.6596985,0.0257339-2.2654724,0.4470978c-1.0003204,0.6583023-1.2640762,2.4230804-1.2640762,4.6349487
			c0,2.0542526,0.1318741,3.6346207,1.2640762,4.3722687c0.6057739,0.4213562,1.5546341,0.4470901,2.2654724,0.4470901
			c0.7108459,0,1.658638-0.0257339,2.2644043-0.4470901c0.737648-0.4738998,1.0539322-1.3434219,1.1847382-2.4498901h2.5817642
			C100.333107,74.3473129,99.5954666,75.9266052,98.1995087,76.6910553z"/>
		<path class="st1" d="M124.4366684,77.0330734l-6.4790649-6.6366653v6.6366653h-2.5013504V58.5983543h2.5013504v10.5339699
			l5.5044708-5.5301971h3.0288544l-6.1370468,5.978363l7.1899033,7.4525833H124.4366684z"/>
		<path class="st1" d="M93.3544159,104.0330582V92.577034H88.403183v-1.9749222h7.4536591v13.4309464H93.3544159z
			 M92.8011856,88.3634415v-2.7650986h3.3183365v2.7650986H92.8011856z"/>
		<path class="st1" d="M119.8542557,104.34935c-2.5549545,0-4.3980026-1.2115402-4.3980026-3.8973007v-7.8482132h-4.0291748
			v-2.0017242h4.0291748v-4.2135925l2.5013504-0.7901764v5.0037689h5.0305786v2.0017242h-5.0305786v7.3475113
			c0,1.5535583,1.1847382,2.2644043,2.3180084,2.2644043c0.9477921,0,2.6064224-0.1844101,2.9752502-0.3420181v2.1067963
			C122.6976242,104.1381302,121.2759399,104.34935,119.8542557,104.34935z"/>
	</g>
</g>
<g id="Logo_Color_3_">
	<g id="Logo_Color_2_3_">
	</g>
</g>
<g id="Logo_Color_2_">
	<g id="Logo_Color_2_1_">
	</g>
</g>
<g id="Logo_Color_1_">
	<g id="Logo_Color_2_2_">
		<g id="Wordmark">
		</g>
	</g>
</g>
<g id="Logo_BW">
</g>
<g id="Logo_Color">
	<g id="Logo_Color_2">
	</g>
</g>
</svg>
