<svg enable-background="new 0 0 2145.6757812 625" viewBox="0 0 2145.6757812 625" xmlns="http://www.w3.org/2000/svg"><path d="m0 0h2145.675781v625h-2145.675781z" fill="none"/><path d="m374.523987 250.000275h249.999039v249.998901h-249.999039z" fill="#0016ff"/><path d="m124.524956 125.000816h249.999039v249.998901h-249.999039z" fill="#e70000"/><path d="m124.524956 250.000275h499.998077v124.999451h-499.998077z" fill="#711ed6"/><path d="m778.2200317 414.9858093c-13.7107544 0-30.1546631-.9147949-42.0358276-7.6237183-21.9327393-12.1755066-29.2398682-45.0742188-29.2398682-102.6391296 0-56.0402374 6.6972656-90.1590424 29.2398682-102.6497345 11.8811646-6.6976166 28.3250732-7.6124268 42.0358276-7.6124268 44.7692871 0 61.8226929 13.1012573 68.53125 57.8698425h-29.8500977c-3.9641113-27.4102478-10.9660034-33.4976501-38.6811523-33.4976501-8.5268555 0-18.883728 0-26.2021484 4.8676758-14.309021 9.1371002-14.6139526 49.9528351-14.6139526 65.4932098v31.0588684c0 15.234375.3049316 56.3557434 14.6139526 65.492157 7.3184204 4.8676453 17.675293 4.8676453 26.2021484 4.8676453 28.0200806 0 35.0219727-6.3919678 38.986084-34.1071472h29.545166c-6.7085571 45.0742188-23.4580688 58.4804077-68.53125 58.4804077z"/><path d="m1031.5985107 307.7723083c0 52.3806458-5.1845703 86.4994507-29.2408447 99.5897827-12.1860962 6.7089233-25.5908813 7.6237183-39.2907104 7.6237183-13.7114868 0-26.8120117-.9147949-38.9864502-7.6237183-20.7130127-11.2607117-29.239502-38.0720215-29.239502-99.5897827v-109.6522827h28.9342041v109.9572144c0 44.7689209 4.5634155 70.3495789 16.138916 77.9729309 7.0025635 4.8676758 14.9196167 5.1729736 23.152832 5.1729736 8.2216187 0 16.4442139-.3052979 23.4453735-5.1729736 11.2716675-7.3180847 16.1509399-28.3363342 16.1509399-77.9729309v-109.9572144h28.9352417v109.6522827z"/><path d="m1191.1574707 411.3265991v-105.3839111c0-24.677124-12.7836914-30.1546631-31.97229-30.1546631-28.9459229 0-40.81604 21.3232117-40.81604 37.4618225v98.0767517h-28.9356689v-213.2065735h28.9356689v75.2285156c6.3919678-10.3561096 21.3221436-21.0178986 45.6837158-21.0178986 37.1572266 0 56.0401611 17.0654144 56.0401611 49.9528351v109.0431213h-28.9355469z"/><path d="m1374.7961426 341.5748901h-46.6090088c-21.6175537 0-30.1442871 6.0979919-30.1442871 25.8975525 0 18.2724609 9.7471924 24.360199 32.277832 24.360199 10.6618652 0 19.1884766-.3052673 26.8121338-3.0496826 7.9176025-2.7327881 17.6633301-9.1360474 17.6633301-19.4928894zm3.0378418 69.751709v-18.8844299c-2.7325439 5.7824707-13.0892334 16.1389465-21.3106689 18.8844299-9.1477051 3.3539124-18.2851562 3.6592102-38.083374 3.6592102-31.057373 0-51.4659424-14.3209839-51.4659424-49.039093 0-22.2369385 12.1856689-45.6939697 48.7332764-45.6939697h59.0888672c0-17.9692688-.9147949-31.6687622-11.2714844-38.682251-7.3066406-4.8676453-19.1871338-5.1726074-27.4099121-5.1726074-8.2332764 0-17.6748047.3049622-24.6773682 5.1726074-6.6970215 4.269104-9.4414062 9.4420471-10.6605225 19.1882935h-29.8499756c2.7440186-20.1030884 9.746582-32.582489 24.6768799-40.8047791 12.1862793-6.7085571 26.8007812-7.6233673 40.5109863-7.6233673 13.699707 0 31.362915.9148102 43.854248 7.6233673 21.0179443 11.5649414 23.7623291 39.2801208 23.7623291 72.1791992v79.1933899z"/><path d="m1562.0714111 407.3620911c-12.1743164 6.7089233-25.2750244 7.6237183-38.9864502 7.6237183-13.6998291 0-26.8005371-.9147949-38.9863281-7.6237183-21.3225098-11.5649414-29.2398682-39.2921143-29.2398682-72.1791992 0-25.5922852 3.6591797-61.2244568 29.2398682-75.2288818 12.185791-6.7085571 25.286499-7.6233673 38.9863281-7.6233673 13.7114258 0 26.8121338.9148102 38.9864502 7.6233673 17.6644287 9.4420471 24.6772461 29.2398682 27.7154541 49.0380249h-30.4481201c-1.8295898-12.7955933-5.7940674-22.542572-13.100708-27.4215393-7.0026855-4.8676453-14.9302979-5.1726074-23.1530762-5.1726074-8.2214355 0-16.1390381.3049622-23.1413574 5.1726074-11.5753174 7.6233826-14.6248779 28.0201111-14.6248779 53.6123962 0 23.7510376 1.5241699 42.0248718 14.6248779 50.5620117 7.0023193 4.8676453 14.9199219 5.1729431 23.1413574 5.1729431 8.2227783 0 16.1503906-.3052979 23.1530762-5.1729431 8.5267334-5.4884949 12.1859131-15.5400391 13.710083-28.324707h29.8387451c-3.038208 22.8362121-11.5648193 41.1097106-27.7154541 49.9418945z"/><path d="m1740.5368652 411.3265991-74.9233398-76.7542724v76.7542724h-28.9344483v-213.2065735h28.9344483v121.8274231l64.5671387-63.9575805h37.1569824l-74.0087891 69.1411132 86.1945801 86.1956177z"/><path d="m1830.3571777 230.1042938v-31.9842682h31.9851074v31.9842682zm3.0496827 181.2223053v-132.4892273h-38.6811523v-22.8475037h67.6165771v155.336731z"/><path d="m1988.4197998 414.9858093c-29.548584 0-50.8741455-14.0171204-50.8741455-45.0862427v-90.7572632h-34.4057617v-23.1524353h34.4057617v-48.7327423l28.9354248-9.1371002v57.8698425h49.0354004v23.1524353h-49.0354004v84.9751587c0 17.9685669 13.7158203 26.1908569 26.807373 26.1908569 7.9221191 0 21.0135498-2.1348877 25.28125-3.9524841v24.3601685c-6.3955078 1.8296204-16.7460937 4.2698059-30.1499023 4.2698059z"/></svg>