<?xml version="1.0" encoding="utf-8"?>
<!-- Generator: Adobe Illustrator 22.0.1, SVG Export Plug-In . SVG Version: 6.00 Build 0)  -->
<svg version="1.1" id="Layer_1" xmlns="http://www.w3.org/2000/svg" xmlns:xlink="http://www.w3.org/1999/xlink" x="0px" y="0px"
	 viewBox="0 0 1366 695.1" style="enable-background:new 0 0 1366 695.1;" xml:space="preserve">
<style type="text/css">
	.st0{fill:#FFFFFF;}
	.st1{fill:#EEEEEE;}
	.st2{opacity:5.000000e-02;enable-background:new    ;}
	.st3{fill:#0016FF;}
	.st4{fill:#E70000;}
	.st5{fill:#711ED6;}
	.st6{fill:none;}
	.st7{enable-background:new    ;}
	.st8{opacity:0.1;fill:#E70000;enable-background:new    ;}
	.st9{opacity:0.15;fill:#E70000;enable-background:new    ;}
	.st10{clip-path:url(#SVGID_2_);}
	.st11{fill:#FFFFFF;stroke:#000000;stroke-width:1.5;stroke-miterlimit:10;}
</style>
<rect class="st0" width="1366" height="71"/>
<polygon class="st1" points="1366,207 1366,0 0,0 0,697 806,697 969,206 "/>
<polygon class="st2" points="2400,768 3022,699 3132,215 3767,215 3767,0 2399,0 "/>
<g>
	<polygon class="st3" points="2550.1,94.5 2550.1,160 2615.6,160 2615.6,94.5 	"/>
	<polygon class="st4" points="2550.1,61.7 2484.6,61.7 2484.6,127.2 2550.1,127.2 	"/>
	<polygon class="st5" points="2484.6,94.5 2484.6,127.2 2615.6,127.2 2615.6,94.5 	"/>
	<path d="M2655.8,137.7c-3.6,0-7.9-0.2-11-2c-5.7-3.2-7.7-11.8-7.7-26.9c0-14.7,1.8-23.6,7.7-26.9c3.1-1.8,7.4-2,11-2
		c11.7,0,16.2,3.4,17.9,15.2h-7.8c-1-7.2-2.9-8.8-10.1-8.8c-2.2,0-4.9,0-6.9,1.3c-3.7,2.4-3.8,13.1-3.8,17.2v8.1
		c0,4,0.1,14.8,3.8,17.2c1.9,1.3,4.6,1.3,6.9,1.3c7.3,0,9.2-1.7,10.2-8.9h7.7C2672,134.2,2667.6,137.7,2655.8,137.7L2655.8,137.7
		L2655.8,137.7z"/>
	<path d="M2722.2,109.6c0,13.7-1.4,22.7-7.7,26.1c-3.2,1.8-6.7,2-10.3,2s-7-0.2-10.2-2c-5.4-2.9-7.7-10-7.7-26.1V80.9h7.6v28.8
		c0,11.7,1.2,18.4,4.2,20.4c1.8,1.3,3.9,1.4,6.1,1.4c2.2,0,4.3-0.1,6.1-1.4c3-1.9,4.2-7.4,4.2-20.4V80.9h7.6L2722.2,109.6
		L2722.2,109.6L2722.2,109.6z"/>
	<path d="M2764,136.7v-27.6c0-6.5-3.4-7.9-8.4-7.9c-7.6,0-10.7,5.6-10.7,9.8v25.7h-7.6V80.9h7.6v19.7c1.7-2.7,5.6-5.5,12-5.5
		c9.7,0,14.7,4.5,14.7,13.1v28.6h-7.6V136.7L2764,136.7z"/>
	<path d="M2812.9,136.7v-4.9c-0.7,1.5-3.4,4.2-5.6,4.9c-2.4,0.9-4.8,1-10,1c-8.1,0-13.5-3.8-13.5-12.8c0-5.8,3.2-12,12.8-12h15.5
		c0-4.7-0.2-8.3-3-10.1c-1.9-1.3-5-1.4-7.2-1.4s-4.6,0.1-6.5,1.4c-1.8,1.1-2.5,2.5-2.8,5h-7.8c0.7-5.3,2.6-8.5,6.5-10.7
		c3.2-1.8,7-2,10.6-2s8.2,0.2,11.5,2c5.5,3,6.2,10.3,6.2,18.9v20.7H2812.9L2812.9,136.7L2812.9,136.7z M2812.1,118.5h-12.2
		c-5.7,0-7.9,1.6-7.9,6.8c0,4.8,2.6,6.4,8.5,6.4c2.8,0,5-0.1,7-0.8c2.1-0.7,4.6-2.4,4.6-5.1L2812.1,118.5L2812.1,118.5L2812.1,118.5
		z"/>
	<path d="M2861.1,135.7c-3.2,1.8-6.6,2-10.2,2c-3.6,0-7-0.2-10.2-2c-5.6-3-7.7-10.3-7.7-18.9c0-6.7,1-16,7.7-19.7
		c3.2-1.8,6.6-2,10.2-2c3.6,0,7,0.2,10.2,2c4.6,2.5,6.5,7.7,7.3,12.8h-8c-0.5-3.4-1.5-5.9-3.4-7.2c-1.8-1.3-3.9-1.4-6.1-1.4
		c-2.2,0-4.2,0.1-6.1,1.4c-3,2-3.8,7.3-3.8,14c0,6.2,0.4,11,3.8,13.2c1.8,1.3,3.9,1.4,6.1,1.4c2.2,0,4.2-0.1,6.1-1.4
		c2.2-1.4,3.2-4.1,3.6-7.4h7.8C2867.6,128.6,2865.4,133.4,2861.1,135.7L2861.1,135.7L2861.1,135.7z"/>
	<polygon points="2907.9,136.7 2888.3,116.6 2888.3,136.7 2880.7,136.7 2880.7,80.9 2888.3,80.9 2888.3,112.8 2905.2,96 2914.9,96 
		2895.5,114.2 2918.1,136.7 2907.9,136.7 	"/>
	<path d="M2932.2,136.7V102h-10.1v-6h17.7v40.7H2932.2L2932.2,136.7L2932.2,136.7z M2931.4,89.3v-8.4h8.4v8.4H2931.4L2931.4,89.3
		L2931.4,89.3z"/>
	<path d="M2972.8,137.7c-7.7,0-13.3-3.7-13.3-11.8v-23.8h-9V96h9V83.3l7.6-2.4V96h12.8v6.1h-12.8v22.3c0,4.7,3.6,6.9,7,6.9
		c2.1,0,5.5-0.6,6.6-1v6.4C2979,137.1,2976.3,137.7,2972.8,137.7L2972.8,137.7L2972.8,137.7z"/>
</g>
<rect x="2547" y="224" class="st6" width="412" height="104"/>
<text transform="matrix(1 0 0 1 2547 247.7998)" style="font-family:'ArialMT'; font-size:34px;">Come Join Us For The </text>
<text transform="matrix(1 0 0 1 2547 288.5998)" style="font-family:'ArialMT'; font-size:34px;">2019 CUhackit Hackathon!</text>
<rect x="2551" y="387.5" class="st6" width="385.1" height="104"/>
<text transform="matrix(1 0 0 1 2550.9663 396.6001)" style="font-family:'ArialMT'; font-size:13px;">This is the section for a briefing of the event to make people </text>
<text transform="matrix(1 0 0 1 2550.9663 412.2001)" style="font-family:'ArialMT'; font-size:13px;">interested in exploring the site and the event. </text>
<rect x="2551" y="419.5" class="st6" width="385.1" height="104"/>
<text transform="matrix(1 0 0 1 2550.9663 428.6001)" style="font-family:'ArialMT'; font-size:13px;">This is the section for a briefing of the event to make people </text>
<text transform="matrix(1 0 0 1 2550.9663 444.2001)" style="font-family:'ArialMT'; font-size:13px;">interested in exploring the site and the event. </text>
<rect x="2551" y="450.5" class="st6" width="385.1" height="104"/>
<text transform="matrix(1 0 0 1 2550.9663 459.6001)" style="font-family:'ArialMT'; font-size:13px;">This is the section for a briefing of the event to make people </text>
<text transform="matrix(1 0 0 1 2550.9663 475.2001)" style="font-family:'ArialMT'; font-size:13px;">interested in exploring the site and the event. </text>
<rect x="2551" y="482.5" class="st6" width="385.1" height="104"/>
<text transform="matrix(1 0 0 1 2550.9663 491.6001)" style="font-family:'ArialMT'; font-size:13px;">This is the section for a briefing of the event to make people </text>
<text transform="matrix(1 0 0 1 2550.9663 507.2001)" style="font-family:'ArialMT'; font-size:13px;">interested in exploring the site and the event. </text>
<g id="XMLID_13_">
	<path class="st0" d="M2562,645.3c-6.2,0-11.3-5-11.3-11.3v-18.9c0-6.2,5-11.3,11.3-11.3h139.4c6.2,0,11.3,5,11.3,11.3V634
		c0,6.2-5,11.3-11.3,11.3H2562z"/>
	<g>
		<path d="M2701.4,604.6c5.8,0,10.5,4.7,10.5,10.5V634c0,5.8-4.7,10.5-10.5,10.5H2562c-5.8,0-10.5-4.7-10.5-10.5v-18.9
			c0-5.8,4.7-10.5,10.5-10.5H2701.4 M2701.4,603.1H2562c-6.6,0-12,5.4-12,12V634c0,6.6,5.4,12,12,12h139.4c6.6,0,12-5.4,12-12v-18.9
			C2713.4,608.5,2708,603.1,2701.4,603.1L2701.4,603.1z"/>
	</g>
</g>
<g id="XMLID_11_">
	<path class="st0" d="M2757.8,645.1c-6.2,0-11.3-5-11.3-11.3V615c0-6.2,5-11.3,11.3-11.3h139.4c6.2,0,11.3,5,11.3,11.3v18.9
		c0,6.2-5,11.3-11.3,11.3h-139.4V645.1z"/>
	<path d="M2897.2,604.5c5.8,0,10.5,4.7,10.5,10.5v18.9c0,5.8-4.7,10.5-10.5,10.5h-139.4c-5.8,0-10.5-4.7-10.5-10.5V615
		c0-5.8,4.7-10.5,10.5-10.5H2897.2 M2897.2,603h-139.4c-6.6,0-12,5.4-12,12v18.9c0,6.6,5.4,12,12,12h139.4c6.6,0,12-5.4,12-12V615
		C2909.2,608.4,2903.8,603,2897.2,603L2897.2,603z"/>
</g>
<rect x="2573.1" y="619.9" class="st6" width="244.9" height="27.4"/>
<text id="XMLID_10_" transform="matrix(1 0 0 1 2573.0845 628.9727)" style="font-family:'ArialMT'; font-size:13px;">Apply as Participant</text>
<rect x="2781.1" y="619.9" class="st6" width="207.9" height="27.4"/>
<text id="XMLID_9_" transform="matrix(1 0 0 1 2781.0845 628.9727)" style="font-family:'ArialMT'; font-size:13px;">Apply as Mentor</text>
<polygon class="st8" points="3132,215 3145,215 3028,708 2400,775 2400,768 3022,699 "/>
<polygon class="st9" points="2400,775 2400,782 3035,717 3155,227 3766,226 3767,215 3145,215 3028,708 "/>
<g>
	<g>
		<defs>
			<polygon id="SVGID_1_" points="3568,5 3568,75 3563,78 3563,123 3570,125 3570,220 3631,242 3689,220 3689,126 3697,123 3697,77 
				3691,74 3691,6 3691,5 			"/>
		</defs>
		<clipPath id="SVGID_2_">
			<use xlink:href="#SVGID_1_"  style="overflow:visible;"/>
		</clipPath>
		<g transform="matrix(1 0 0 1 -2.441406e-04 0)" class="st10">
		</g>
	</g>
</g>
<polyline class="st11" points="3766,226 3766,1537 2902,1537 "/>
<rect x="3609" y="425" class="st6" width="194" height="30"/>
<text id="XMLID_8_" transform="matrix(1 0 0 1 3609 441.7998)" style="font-family:'ArialMT'; font-size:24px;">Sponsors</text>
<rect x="3233" y="425" class="st6" width="194" height="30"/>
<text id="XMLID_7_" transform="matrix(1 0 0 1 3233 441.7998)" style="font-family:'ArialMT'; font-size:24px;">Speakers</text>
<rect x="3120" y="425" class="st6" width="194" height="30"/>
<text id="XMLID_2_" transform="matrix(1 0 0 1 3120 441.7998)" style="font-family:'ArialMT'; font-size:24px;">Home</text>
<rect x="3499" y="425" class="st6" width="194" height="30"/>
<text transform="matrix(1 0 0 1 3499 441.7998)" style="font-family:'ArialMT'; font-size:24px;">Team</text>
<rect x="3381" y="425" class="st6" width="194" height="30"/>
<text transform="matrix(1 0 0 1 3380.998 441.7998)" style="font-family:'ArialMT'; font-size:24px;">Day of </text>
<rect y="1355" class="st1" width="1366" height="952"/>
</svg>
