<?xml version="1.0" encoding="utf-8"?>
<!-- Generator: Adobe Illustrator 22.0.1, SVG Export Plug-In . SVG Version: 6.00 Build 0)  -->
<svg version="1.1" xmlns="http://www.w3.org/2000/svg" xmlns:xlink="http://www.w3.org/1999/xlink" x="0px" y="0px"
	 viewBox="0 0 2142 625" style="enable-background:new 0 0 2142 625;" xml:space="preserve">
<style type="text/css">
	.st0{fill:#FFFFFF;}
	.st1{fill:#0016FF;}
	.st2{fill:#E70000;}
	.st3{fill:#711ED6;}
</style>
<g id="Layer_1">
	<g>
		<path d="M822.352356,411.2515869V312.802124h-81.9908447v98.4494629h-28.9559326V197.8930511h28.9559326v92.0482025h81.9908447
			v-92.0482025h28.9559326v213.3585358H822.352356z"/>
		<path d="M990.2896118,407.2902527c-12.1920776,6.7055664-26.8222046,7.6203003-40.5375977,7.6203003
			c-13.7163086,0-28.3464355-0.9147339-40.5385132-7.6203003c-21.3356323-11.5835266-29.2611694-39.3204651-29.2611694-72.2377319
			c0-25.6031799,3.9622803-60.9604187,29.5654297-74.9800415c12.1920776-6.7055664,26.5179443-7.9245758,40.2342529-7.9245758
			c13.7153931,0,27.7359619,1.2190094,39.9281006,7.9245758c18.5933228,10.0583191,28.3464355,35.661499,28.3464355,67.664032
			v11.5835266H910.4324951c0,22.8589478,2.4380493,37.4890747,15.239624,45.7198181
			c7.0108032,4.8760681,15.8500977,5.790802,24.079895,5.790802c8.2288818,0,17.6776733-0.3042603,24.6884766-5.182251
			c7.9245605-5.1803284,12.4963379-11.581604,13.715332-22.2503967h29.8707275
			C1015.588501,383.5146484,1005.2249146,399.0595093,990.2896118,407.2902527z M974.4404907,281.4081421
			c-7.0108032-4.8779907-16.4595947-5.1822815-24.6884766-5.1822815c-8.2297974,0-17.6785889,0.3042908-24.6893921,5.1822815
			c-8.5340576,5.4865112-12.1920776,17.372406-13.715332,36.27005h76.1990356
			C987.2420654,299.086731,981.7554932,286.2841797,974.4404907,281.4081421z"/>
		<path d="M1283.5480957,407.2902527c-12.4963379,7.0098267-28.0412598,7.6203003-42.0618896,7.6203003
			c-14.0214844,0-29.5664062-0.6104736-42.0627441-7.6203003c-24.3841553-13.4111023-29.2602539-47.2450256-29.2602539-72.2377319
			c0-25.9074707,3.6571045-61.264679,29.2602539-75.2862549c12.1921387-7.0098114,28.0412598-7.6183624,42.0627441-7.6183624
			c14.0206299,0,29.869751,0.608551,42.0618896,7.6183624c25.6031494,14.0215759,29.2602539,49.3787842,29.2602539,75.2862549
			C1312.8083496,360.0452271,1307.932251,393.8791504,1283.5480957,407.2902527z M1267.6989746,281.4081421
			c-7.31604-4.8779907-17.6785889-5.1822815-26.2127686-5.1822815c-8.5350342,0-18.897583,0.3042908-26.213623,5.1822815
			c-14.3248291,8.8392944-14.630127,39.0142517-14.630127,53.6443787c0,27.4307556,3.6580811,43.5860596,14.630127,50.5958862
			c7.31604,4.8779907,17.6785889,5.182251,26.213623,5.182251c8.5341797,0,18.8967285-0.3042603,26.2127686-5.182251
			c10.9720459-7.0098267,14.630127-21.9442139,14.630127-50.5958862
			C1282.3291016,320.4223938,1282.0238037,290.2474365,1267.6989746,281.4081421z"/>
		<path d="M1502.9979248,411.2515869h-35.052002l-33.5286865-177.0884857l-33.527832,177.0884857h-35.052002l-48.767334-213.3585358
			h30.4802246l35.661499,182.5750275l35.9658203-182.5750275h30.4801025l35.661499,182.5750275l35.9658203-182.5750275h30.4802246
			L1502.9979248,411.2515869z"/>
		<path d="M1666.3642578,407.2902527c-12.4963379,7.0098267-28.0411377,7.6203003-42.0627441,7.6203003
			c-14.0206299,0-29.5654297-0.6104736-42.0617676-7.6203003c-24.3841553-13.4111023-29.2602539-47.2450256-29.2602539-72.2377319
			c0-25.9074707,3.6569824-61.264679,29.2602539-75.2862549c12.1920166-7.0098114,28.0411377-7.6183624,42.0617676-7.6183624
			c14.0216064,0,29.8707275,0.608551,42.0627441,7.6183624c25.6032715,14.0215759,29.2602539,49.3787842,29.2602539,75.2862549
			C1695.6245117,360.0452271,1690.7484131,393.8791504,1666.3642578,407.2902527z M1650.5151367,281.4081421
			c-7.31604-4.8779907-17.6785889-5.1822815-26.213623-5.1822815c-8.5340576,0-18.8967285,0.3042908-26.2126465,5.1822815
			c-14.3249512,8.8392944-14.630127,39.0142517-14.630127,53.6443787c0,27.4307556,3.657959,43.5860596,14.630127,50.5958862
			c7.315918,4.8779907,17.6785889,5.182251,26.2126465,5.182251c8.5350342,0,18.897583-0.3042603,26.213623-5.182251
			c10.972168-7.0098267,14.630127-21.9442139,14.630127-50.5958862
			C1665.1452637,320.4223938,1664.8400879,290.2474365,1650.5151367,281.4081421z"/>
		<path d="M1751.3959961,319.2033997v92.0481873h-28.9559326v-155.44664h26.8231201v27.7369232
			c6.7055664-17.3743286,24.3831787-31.3939667,50.901123-31.3939667v27.4307404
			C1769.3797607,279.5786438,1751.3959961,299.086731,1751.3959961,319.2033997z"/>
		<path d="M1991.5690918,411.2515869v-15.5448608c-8.5350342,10.0583191-23.1651611,19.2038269-39.6237793,19.2038269
			c-13.7164307,0-29.8707275-0.9147339-42.0628662-7.6203003c-21.3355713-11.5835266-29.2601318-38.7099915-29.2601318-71.6291809
			c0-25.6031799,4.5717773-61.87323,30.1749268-75.8948059c12.1920166-6.7055359,22.2503662-7.6183624,35.9658203-7.6183624
			c19.5070801,0,32.3087158,6.0950775,41.4532471,17.0681305v-71.3229828h29.2602539v213.3585358H1991.5690918z
			 M1951.9453125,275.3111267c-8.2298584,0-19.2028809,0.3061829-26.2137451,5.182251
			c-11.581543,7.6203003-14.6300049,28.9559631-14.6300049,54.5591431c0,23.7736816,1.5241699,42.9755859,14.6300049,51.5106201
			c7.0108643,4.8760681,17.9838867,4.8760681,26.2137451,4.8760681c29.2601318,0,37.7943115-24.688446,37.7943115-56.3866882
			C1989.739624,297.2572632,1982.7297363,275.3111267,1951.9453125,275.3111267z"/>
		<rect x="1045.4526367" y="197.8930511" width="28.9559517" height="213.3585358"/>
		<rect x="1108.5982666" y="197.8930511" width="28.9559517" height="213.3585358"/>
		<rect x="1825.1522217" y="197.8930511" width="28.9559517" height="213.3585358"/>
	</g>
	<g>
		<rect x="374.5239868" y="250.0002747" class="st1" width="249.9990387" height="249.9989014"/>
		<rect x="124.5249557" y="125.0008163" class="st2" width="249.9990387" height="249.9989014"/>
		<rect x="124.5249557" y="250.0002747" class="st3" width="499.9980774" height="124.9994507"/>
	</g>
</g>
<g id="Hide">
</g>
</svg>
