<svg xmlns="http://www.w3.org/2000/svg" viewBox="0 0 229.83 77.17"><defs><style>.cls-1{fill:#fff;}.cls-2{fill:#00aaad;fill-rule:evenodd;}</style></defs><title>sie-logo-layer-claim-petrol-pantone [Converted]</title><g id="Ingenuity_for_life" data-name="Ingenuity for life"><path class="cls-1" d="M98.79,89.88l0,.25c0,.8.08,1.57.09,2.3v.06l0,0c-3.44,2.3-5.57,4.78-6.53,7.59a6.3,6.3,0,0,0,.33,5.58,3.29,3.29,0,0,0,2.8,1.38c2,0,3.65-1.55,4.78-4.6a34.82,34.82,0,0,0,1.65-10v-.06l0,0a45.24,45.24,0,0,1,5.24-2.71l.07,0,0,.07a6.59,6.59,0,0,0,5.1,2.66c2.67,0,5.28-2.06,6.27-3l.13-.12,0,.18a2.86,2.86,0,0,0,1.41,1.92c1.3.81,2.31.82,3.1,0,.58-.58,1-1.12,1.45-1.6A11.08,11.08,0,0,1,127,87.68a.69.69,0,0,1,1.07.29c1.6,2.74,3.44,4.26,5.32,4.4.56,0,1-.12,1.09-.38s-.09-.37-.39-.55c-1.2-.75-2.23-2.26-3.16-4.6-.32-.8-.74-1.31-2.17-1.87a2.17,2.17,0,0,0-.75-.15,2,2,0,0,0-1.15.45l-.08.06a22.11,22.11,0,0,0-3,2.79c-.39.41-.73.77-1,1-.38.33-.66.39-.83.22a.8.8,0,0,1-.14-.55,11.29,11.29,0,0,1,1.22-4.4,1,1,0,0,0,.06-.81,1.68,1.68,0,0,0-1-.8,2.8,2.8,0,0,0-.89-.18c-.66,0-1,.42-1.22,1a14.74,14.74,0,0,0-1,3.47v0l0,0c-2.38,2.33-4.49,3.51-6.26,3.51a2.32,2.32,0,0,1-2.47-2.2v-.08l.06,0c2-.88,3.9-1.85,4.82-3a1.78,1.78,0,0,0,.32-2,3,3,0,0,0-2.57-1.59c-1.29,0-6,2.4-6.06,6.58v.06l-.06,0c-1.14.5-2.86,1.27-4.56,2.16l-.17.09,0-.19a18.18,18.18,0,0,1,1.28-5,1.32,1.32,0,0,0,.18-1c-.09-.25-.34-.45-.86-.68a1.66,1.66,0,0,0-1.81.18l-.08.07-.07-.1A2.19,2.19,0,0,0,98.86,83c-2.51,0-6.19,4.31-6.46,6a1.57,1.57,0,0,0,.42,1.29,4.24,4.24,0,0,0,3.11,1.31,4.17,4.17,0,0,0,2.7-1.5Zm69.92.1-.07.14c-.56,1.17-1.08,2.44-1.64,3.8a51.45,51.45,0,0,1-6.62,12.37c-.15.2-.2.38-.13.51a.47.47,0,0,0,.45.21,1.42,1.42,0,0,0,.74-.25c2.2-1.4,5.32-6.09,8.58-12.88,2.45-5.11,4-6.81,5.32-8.17l.45-.49a.69.69,0,0,0,.23-.62c-.09-.31-.5-.61-1.16-.84a1.79,1.79,0,0,0-2.12.37l-.06.07c-1.67,1.88-3.86,4.13-4.83,4.13a.79.79,0,0,1-.61-.25c-.47-.51-.38-1.64-.31-2.46q0-.21,0-.39c0-.7-.36-1.07-1.36-1.25-.76-.13-3.27-.29-5.2-.39h-.11l0-.12a25.13,25.13,0,0,1,2.22-7c.3-.5.52-.9.4-1.17s-.43-.41-1.06-.57a2.55,2.55,0,0,0-.69-.1,1.6,1.6,0,0,0-1.53,1.26,34.61,34.61,0,0,0-2.06,7.51l0,.09h-.08c-.52,0-.94,0-1.24,0s-.56.07-.64.21-.07.32,0,.59a2.48,2.48,0,0,0,1.58,1.44l.08,0v.08c0,.57-.06,1.14-.06,1.69,0,2.79.81,4.43,2.42,4.76l.21,0c.21,0,.49-.06.58-.22s0-.22-.05-.38c-.8-1.42-.68-4.08-.44-6.06v-.07l.08,0a31.75,31.75,0,0,1,3.3-.35h0a.61.61,0,0,1,.46.15.66.66,0,0,1,.12.5,4,4,0,0,0,1,3A4.58,4.58,0,0,0,168.54,90ZM95.14,105.75a1.08,1.08,0,0,1-.93-.5c-.36-.49-.77-1.8.36-4.94a13.49,13.49,0,0,1,4.16-5.63l.17-.14v.22C98.71,101.23,97.17,105.75,95.14,105.75ZM239.2,88.81l0,.12a38,38,0,0,0-.57,7.84c.19,2.43,1,3.13,1.52,3.44s.91.34,1.07.16a.58.58,0,0,0,.08-.45A41.71,41.71,0,0,1,242,88.46V88.4l.07,0c1.33-.27,2.75-.64,4-1l.15,0,0,.15a4.11,4.11,0,0,0,1.2,3.11c1.65,1.88,4.49,3,7.78,3a6.83,6.83,0,0,0,4.16-1.29c.25-.23.33-.48.27-.61s-.2-.14-.42-.07a13.2,13.2,0,0,1-3.56.51c-2.62,0-4.7-.89-5.71-2.45l-.09-.13.16,0c2-.23,4.46-1.39,4.85-2.29a2,2,0,0,0-.21-1.9,3.87,3.87,0,0,0-3-1.61,6.64,6.64,0,0,0-4.3,1.82l0,0h0a44.31,44.31,0,0,1-4.71.92l-.15,0,0-.15a41.38,41.38,0,0,1,2.35-7.54c.28-.65.56-1.06,1.09-1.09s.88.29,1.1.9a.44.44,0,0,0,.36.33c.17,0,.35-.16.49-.46a2.29,2.29,0,0,0-1-2.6,3.34,3.34,0,0,0-1.83-.66,2,2,0,0,0-1.74,1,32,32,0,0,0-3.64,10.36l0,.08h-.13a9.36,9.36,0,0,1-1.61-.12c-.44-.07-.74,0-.85.2s0,.78.44,1.4a1.67,1.67,0,0,0,1.64.66ZM186,88l0,.14a38.5,38.5,0,0,0-.58,7.11c.09,2,.49,3.27,1.23,3.72a1.34,1.34,0,0,0,.68.19.61.61,0,0,0,.47-.17.63.63,0,0,0,.12-.49,40.26,40.26,0,0,1,1-11v-.06h.07c1.44-.24,3-.43,4.4-.55l.23,0-.14.18a2.52,2.52,0,0,0-.44,1.63c0,1.63,2.13,4,5.47,4,2,0,4.37-1.73,4.37-3.87a4.56,4.56,0,0,0-4.43-4.57,3.59,3.59,0,0,0-2.48,1.1l0,0h-1.63c-1.75,0-3.38,0-4.83.13h-.13l0-.13a31.13,31.13,0,0,1,2.54-7.23c.36-.68.61-1,1.12-1h.11c.49,0,.89.35,1.19,1a.4.4,0,0,0,.36.27.79.79,0,0,0,.55-.37,1.62,1.62,0,0,0,.19-1.33A2.56,2.56,0,0,0,194,75a3.94,3.94,0,0,0-1.74-.5,2.26,2.26,0,0,0-1.88,1.07c-2.09,2.88-3.31,7.1-4,10.13l0,.07h-.07A19.84,19.84,0,0,0,181,87.11c-.36.16-.55.34-.56.54s.24.59.78.95a1.91,1.91,0,0,0,2.16.27,11.24,11.24,0,0,1,2.54-.83Zm45.47,1,0,.31c-.08,1.9.44,3.21,1.57,4a1.68,1.68,0,0,0,.91.32.41.41,0,0,0,.35-.13c.07-.07.07-.19,0-.34a10.18,10.18,0,0,1,.47-5.83c.39-1.06.55-1.69-.55-2.3-.83-.47-1.43-.48-1.77,0l-.1.15-.07.1c-1.92,2.81-4.87,6.09-6.87,6.09a1,1,0,0,1-.79-.34,3.59,3.59,0,0,1-.48-2.63,29.91,29.91,0,0,1,3.18-10.57c.37-.64.47-1,.33-1.27s-.49-.34-1.08-.35h-.07a2.18,2.18,0,0,0-2.24,1.44,29.76,29.76,0,0,0-2.82,11.27,4,4,0,0,0,1.17,2.94,4.91,4.91,0,0,0,3.14,1.46c2.1,0,4.35-2.55,5.51-4.07ZM74.14,73.81a1.07,1.07,0,0,0-1.1.89c-.13.69-.37,1.74-.65,3a84.47,84.47,0,0,0-2,10.6C70.1,92.19,71,93,72,93.35a.52.52,0,0,0,.55-.06.75.75,0,0,0,.16-.57c0-3.36,2.23-12.52,3.39-16.29.44-1.41.06-1.9-.8-2.31A2.72,2.72,0,0,0,74.14,73.81ZM206.27,84.65a.81.81,0,0,0-.65.23.62.62,0,0,0,0,.56c.36,1.2-.11,3.42-.38,4.74-.05.2-.08.39-.11.54-.21,1.07.28,1.37,1,1.77a1.89,1.89,0,0,0,.94.29.8.8,0,0,0,.82-.6,9.35,9.35,0,0,1,9-6.89.31.31,0,0,0,.31-.27.71.71,0,0,0-.49-.72A3.83,3.83,0,0,0,215.1,84a12.15,12.15,0,0,0-6.24,2.08l-.11.08,0-.13a3.7,3.7,0,0,0-1.86-1.34A2.45,2.45,0,0,0,206.27,84.65ZM79.84,82.24c-.61,0-.91.42-1.18,1.1a34,34,0,0,0-1.59,6.34A2,2,0,0,0,78.16,92c1.06.69,2.14.72,2.73.06.26-.28.52-.58.79-.89a27.08,27.08,0,0,1,3.76-3.75c.28-.21.6-.08.74.28,1.41,3.78,3.71,4.34,5,4.34a4.58,4.58,0,0,0,.53,0,.73.73,0,0,0,.71-.65c0-.17-.14-.27-.36-.27H92c-1.87,0-2.26-1.86-2.79-4.44l0-.27a2.61,2.61,0,0,0-1.81-1.9,2.07,2.07,0,0,0-.76-.16,2,2,0,0,0-1.21.5A31.2,31.2,0,0,0,82,88a9.17,9.17,0,0,1-1.67,1.57l-.15,0,0-.15a26,26,0,0,1,1.6-5.42.94.94,0,0,0,0-.75,1.83,1.83,0,0,0-1-.86A2.47,2.47,0,0,0,79.84,82.24Zm63.95,5.86v.22a4.15,4.15,0,0,0,2.57,3.89c.46.13.85.07,1-.14a.39.39,0,0,0-.05-.38c-1.1-1.88-.42-5.38-.34-5.78.24-1.19-.38-1.57-1-2l0,0a1.76,1.76,0,0,0-.9-.29.6.6,0,0,0-.58.32c-.91,2.13-3.85,5.26-5.28,5.26a1,1,0,0,1-.93-.45c-.49-.76-.07-2.29.48-3.47.36-.76.17-1.25-.69-1.72a2.43,2.43,0,0,0-1.14-.35.91.91,0,0,0-.9.57,16.77,16.77,0,0,0-1.07,3.8,3,3,0,0,0,.78,2.4,4,4,0,0,0,2.81,1.47c1.22,0,2.91-1,5.17-3.2Zm7.88-4.87c-.56,0-.9.39-1.14,1.31-.67,2.53-.57,4.77.28,6.13A2.75,2.75,0,0,0,152.62,92c.43.08.78,0,.89-.17a.34.34,0,0,0,0-.31,7.88,7.88,0,0,1,.06-5.91c.44-1,.22-1.57-.81-2A2.94,2.94,0,0,0,151.67,83.23Zm46.26,7.64a1.77,1.77,0,0,1-1.39-.62,2,2,0,0,1-.37-1.61,3.13,3.13,0,0,1,2.58-2.31,1.61,1.61,0,0,1,1.23.53,2.13,2.13,0,0,1,.56,1.51A2.78,2.78,0,0,1,197.93,90.87ZM96.22,89.53a.47.47,0,0,1-.4-.18.8.8,0,0,1,0-.71c.28-.93,2.3-3.94,3.25-3.94a.81.81,0,0,1,.67.4,1.36,1.36,0,0,1,.09,1.29C99.19,87.81,97.47,89.53,96.22,89.53ZM249.32,88v-.11a2.37,2.37,0,0,1,1.75-2.48,1.53,1.53,0,0,1,.47-.07,1,1,0,0,1,.91.47.84.84,0,0,1-.17.92A4.85,4.85,0,0,1,249.42,88Zm-139-1.18,0-.2a4.36,4.36,0,0,1,2-3,1,1,0,0,1,.51-.13.82.82,0,0,1,.78.45c.07.18.1.55-.43,1a11.83,11.83,0,0,1-2.73,1.76ZM235.92,76.43a.83.83,0,0,0-.64.21.86.86,0,0,0,0,.89,4,4,0,0,0,2.72,2,.63.63,0,0,0,.55-.26c.25-.34,0-1.46-.81-2.07A3.13,3.13,0,0,0,235.92,76.43Zm-83.43-.08a.64.64,0,0,0-.5.22.87.87,0,0,0-.05,1,3.48,3.48,0,0,0,2.64,1.62.86.86,0,0,0,.72-.29c.1-.13,0-.36-.05-.48A4.26,4.26,0,0,0,152.49,76.35Z" transform="translate(-29.82 -29.9)"/></g><g id="SIEMENS"><path class="cls-2" d="M30.42,59.56V53.71a30.2,30.2,0,0,0,8.84,1.57q5.31,0,5.31-2.81a2.27,2.27,0,0,0-.78-1.75,16,16,0,0,0-4-2.1q-5.85-2.4-7.62-4.09a7.58,7.58,0,0,1-2.3-5.65,7.64,7.64,0,0,1,3.35-6.7,14.9,14.9,0,0,1,8.62-2.28A48.22,48.22,0,0,1,50.27,31v5.63A20.77,20.77,0,0,0,42.6,35q-5,0-5,2.74a2,2,0,0,0,1,1.68c.55.35,2.09,1.08,4.6,2.21,3.61,1.61,6,3,7.22,4.19a7.36,7.36,0,0,1,2.13,5.46,8.1,8.1,0,0,1-4.18,7.35,16.87,16.87,0,0,1-8.79,2,40.35,40.35,0,0,1-9.19-1.07Z" transform="translate(-29.82 -29.9)"/><polygon class="cls-2" points="27.43 0.52 27.43 0.52 35.7 0.52 35.7 30.13 27.43 30.13 27.43 0.52"/><polygon class="cls-2" points="43.29 30.13 43.29 0.52 64.51 0.52 64.51 5.87 51.27 5.87 51.27 12.56 62.79 12.56 62.79 17.45 51.27 17.45 51.27 24.47 64.85 24.47 64.85 30.13 43.29 30.13 43.29 30.13"/><polygon class="cls-2" points="70.25 30.13 70.25 0.52 80.98 0.52 88.43 19.44 96.07 0.52 106.25 0.52 106.25 30.13 98.41 30.13 98.41 9.16 89.73 30.43 84.6 30.43 76.08 9.16 76.08 30.13 70.25 30.13 70.25 30.13"/><polygon class="cls-2" points="113.84 30.13 113.84 0.52 135.06 0.52 135.06 5.87 121.82 5.87 121.82 12.56 133.34 12.56 133.34 17.45 121.82 17.45 121.82 24.47 135.4 24.47 135.4 30.13 113.84 30.13 113.84 30.13"/><polygon class="cls-2" points="140.85 30.13 140.85 0.52 150.44 0.52 160.61 20.34 160.61 0.52 166.43 0.52 166.43 30.13 157.12 30.13 146.68 10.04 146.68 30.13 140.85 30.13 140.85 30.13"/><path class="cls-2" d="M202.13,59.56V53.71A29.87,29.87,0,0,0,211,55.28c3.54,0,5.3-.94,5.3-2.81a2.31,2.31,0,0,0-.75-1.75,16.05,16.05,0,0,0-4.07-2.1c-3.89-1.58-6.43-2.95-7.62-4.09a7.55,7.55,0,0,1-2.3-5.67,7.59,7.59,0,0,1,3.35-6.68,14.88,14.88,0,0,1,8.62-2.28,40.79,40.79,0,0,1,7.74,1L222,31v5.63A20.78,20.78,0,0,0,214.29,35q-5,0-5,2.74a2,2,0,0,0,1,1.68c.53.33,2.08,1.07,4.63,2.21,3.58,1.61,6,3,7.19,4.19a7.33,7.33,0,0,1,2.14,5.46,8.12,8.12,0,0,1-4.16,7.35,17,17,0,0,1-8.81,2,40.22,40.22,0,0,1-9.19-1.07Z" transform="translate(-29.82 -29.9)"/></g></svg>