<?xml version="1.0" standalone="no"?>
<!DOCTYPE svg PUBLIC "-//W3C//DTD SVG 20010904//EN"
 "http://www.w3.org/TR/2001/REC-SVG-20010904/DTD/svg10.dtd">
<svg version="1.0" xmlns="http://www.w3.org/2000/svg"
 width="354.000000pt" height="268.000000pt" viewBox="0 0 354.000000 268.000000"
 preserveAspectRatio="xMidYMid meet">
<metadata>
Created by potrace 1.15, written by Peter Selinger 2001-2017
</metadata>
<g transform="translate(0.000000,268.000000) scale(0.100000,-0.100000)"
fill="#000000" stroke="none">
<path d="M40 1770 l0 -870 865 0 865 0 0 -435 0 -435 865 0 865 0 0 870 0 870
-865 0 -865 0 0 435 0 435 -865 0 -865 0 0 -870z m630 605 l0 -85 -35 0 -35 0
0 56 0 56 -123 -4 c-86 -2 -129 -7 -140 -17 -15 -11 -17 -37 -17 -169 0 -199
-5 -192 141 -192 118 0 135 7 146 61 5 24 10 29 36 29 29 0 30 0 24 -45 -9
-88 -59 -115 -207 -115 -118 0 -160 14 -190 62 -18 29 -20 50 -20 191 0 171 6
197 56 236 25 19 39 21 195 21 l169 0 0 -85z m590 55 c0 -29 -2 -30 -45 -30
l-45 0 0 -174 c0 -211 -3 -206 127 -206 124 0 123 -2 123 210 l0 170 -45 0
c-43 0 -45 1 -45 30 l0 30 110 0 110 0 0 -30 c0 -27 -3 -30 -30 -30 l-30 0 0
-167 c0 -189 -8 -220 -69 -260 -29 -20 -47 -23 -123 -23 -101 0 -145 15 -175
58 -15 23 -18 53 -21 210 l-4 182 -34 0 c-31 0 -34 3 -34 30 l0 30 115 0 115
0 0 -30z m-870 -867 l0 -88 101 0 101 0 34 -37 34 -38 0 -120 0 -120 40 0 c39
0 40 -1 40 -35 l0 -35 -70 0 -70 0 0 139 c0 176 -5 185 -103 186 -99 0 -107
-11 -107 -147 l0 -108 35 0 c33 0 35 -2 35 -35 l0 -35 -105 0 -105 0 0 35 c0
33 2 35 35 35 l35 0 0 210 0 210 -35 0 c-33 0 -35 2 -35 35 l0 35 70 0 70 0 0
-87z m2588 -71 l3 -152 44 32 c46 35 55 48 30 48 -10 0 -15 10 -15 30 l0 30
110 0 110 0 0 -30 c0 -28 -2 -30 -39 -30 -30 0 -51 -10 -94 -42 -31 -24 -57
-46 -57 -50 0 -3 34 -43 76 -87 70 -74 79 -81 115 -81 38 0 39 -1 39 -35 l0
-35 -100 0 -100 0 0 35 c0 29 3 35 22 35 19 0 12 10 -41 64 -55 55 -66 63 -82
53 -15 -9 -19 -27 -21 -97 l-3 -85 -67 -3 -68 -3 0 36 c0 33 2 35 35 35 l35 0
0 209 0 210 -37 3 c-27 2 -39 8 -41 21 -8 41 4 48 75 45 l68 -3 3 -153z
m-1570 -32 c46 -28 62 -73 62 -176 0 -93 13 -124 52 -124 14 0 18 -8 18 -35 0
-41 -10 -43 -64 -16 -38 20 -38 20 -74 0 -27 -14 -56 -19 -110 -19 -119 0
-175 40 -175 125 0 87 59 125 198 125 77 0 85 2 85 19 0 11 -12 29 -26 40 -23
18 -41 21 -130 21 l-104 0 0 30 0 30 118 0 c100 0 122 -3 150 -20z m972 -50
l0 -70 -35 0 c-34 0 -35 1 -35 40 l0 40 -89 0 c-74 0 -92 -3 -115 -21 -25 -19
-26 -25 -26 -108 0 -124 6 -131 120 -131 93 0 112 8 125 50 4 14 15 20 36 20
23 0 29 -4 29 -22 0 -37 -38 -88 -77 -105 -27 -11 -62 -14 -130 -11 -92 3 -93
3 -130 41 l-38 37 -3 98 c-4 116 10 161 60 192 29 17 50 20 171 20 l137 0 0
-70z m590 -745 l0 -54 103 -3 102 -3 3 -27 3 -27 -103 -3 -103 -3 0 -112 c0
-145 1 -147 130 -151 l95 -4 0 -30 0 -30 -110 4 c-109 3 -110 3 -142 36 l-33
32 -3 130 -4 130 -84 0 -84 0 0 30 0 30 85 0 85 0 0 55 c0 54 0 55 30 55 30 0
30 -1 30 -55z m-732 -222 l2 -163 70 0 70 0 0 -30 0 -30 -180 0 -180 0 0 30 0
30 75 0 75 0 0 130 0 130 -65 0 -65 0 0 35 0 36 98 -3 97 -3 3 -162z"/>
<path d="M1197 1252 c-22 -24 -21 -55 1 -75 14 -13 38 -17 94 -17 87 0 108 14
108 73 l0 37 -93 0 c-78 0 -97 -3 -110 -18z"/>
</g>
</svg>
